<?xml version="1.0" encoding="UTF-8" standalone="no"?><svg xmlns="http://www.w3.org/2000/svg" xmlns:xlink="http://www.w3.org/1999/xlink" contentStyleType="text/css" height="376px" preserveAspectRatio="none" style="width:2898px;height:376px;background:#FFFFFF;" version="1.1" viewBox="0 0 2898 376" width="2898px" zoomAndPan="magnify"><defs/><g><rect fill="#F1F1F1" height="81.9531" rx="5" ry="5" style="stroke:#F1F1F1;stroke-width:1.5;" width="203" x="10" y="176"/><text fill="#000000" font-family="sans-serif" font-size="14" font-weight="bold" lengthAdjust="spacing" textLength="96" x="15" y="191.5352">resourceType</text><text fill="#000000" font-family="sans-serif" font-size="14" lengthAdjust="spacing" textLength="47" x="121" y="191.5352">Bundle</text><line style="stroke:#000000;stroke-width:1.0;" x1="116" x2="116" y1="176" y2="196.4883"/><line style="stroke:#000000;stroke-width:1.0;" x1="10" x2="213" y1="196.4883" y2="196.4883"/><text fill="#000000" font-family="sans-serif" font-size="14" font-weight="bold" lengthAdjust="spacing" textLength="14" x="15" y="212.0234">id</text><text fill="#000000" font-family="sans-serif" font-size="14" lengthAdjust="spacing" textLength="87" x="121" y="212.0234">LabRejection</text><line style="stroke:#000000;stroke-width:1.0;" x1="116" x2="116" y1="196.4883" y2="216.9766"/><line style="stroke:#000000;stroke-width:1.0;" x1="10" x2="213" y1="216.9766" y2="216.9766"/><text fill="#000000" font-family="sans-serif" font-size="14" font-weight="bold" lengthAdjust="spacing" textLength="31" x="15" y="232.5117">type</text><text fill="#000000" font-family="sans-serif" font-size="14" lengthAdjust="spacing" textLength="77" x="121" y="232.5117">transaction</text><line style="stroke:#000000;stroke-width:1.0;" x1="116" x2="116" y1="216.9766" y2="237.4648"/><line style="stroke:#000000;stroke-width:1.0;" x1="10" x2="213" y1="237.4648" y2="237.4648"/><text fill="#000000" font-family="sans-serif" font-size="14" font-weight="bold" lengthAdjust="spacing" textLength="37" x="15" y="253">entry</text><text fill="#000000" font-family="sans-serif" font-size="14" lengthAdjust="spacing" textLength="12" x="121" y="253">   </text><line style="stroke:#000000;stroke-width:1.0;" x1="116" x2="116" y1="237.4648" y2="257.9531"/><rect fill="none" height="81.9531" rx="5" ry="5" style="stroke:#000000;stroke-width:1.5;" width="203" x="10" y="176"/><rect fill="#F1F1F1" height="20.4883" rx="5" ry="5" style="stroke:#F1F1F1;stroke-width:1.5;" width="22" x="250" y="238"/><text fill="#000000" font-family="sans-serif" font-size="14" lengthAdjust="spacing" textLength="12" x="255" y="253.5352">   </text><rect fill="none" height="20.4883" rx="5" ry="5" style="stroke:#000000;stroke-width:1.5;" width="22" x="250" y="238"/><rect fill="#F1F1F1" height="61.4648" rx="5" ry="5" style="stroke:#F1F1F1;stroke-width:1.5;" width="361" x="311" y="217.5"/><text fill="#000000" font-family="sans-serif" font-size="14" font-weight="bold" lengthAdjust="spacing" textLength="46" x="316" y="233.0352">fullUrl</text><text fill="#000000" font-family="sans-serif" font-size="14" lengthAdjust="spacing" textLength="280" x="387" y="233.0352">Task/HIVLabOrderRejectionTaskExample</text><line style="stroke:#000000;stroke-width:1.0;" x1="382" x2="382" y1="217.5" y2="237.9883"/><line style="stroke:#000000;stroke-width:1.0;" x1="311" x2="672" y1="237.9883" y2="237.9883"/><text fill="#000000" font-family="sans-serif" font-size="14" font-weight="bold" lengthAdjust="spacing" textLength="61" x="316" y="253.5234">resource</text><text fill="#000000" font-family="sans-serif" font-size="14" lengthAdjust="spacing" textLength="12" x="387" y="253.5234">   </text><line style="stroke:#000000;stroke-width:1.0;" x1="382" x2="382" y1="237.9883" y2="258.4766"/><line style="stroke:#000000;stroke-width:1.0;" x1="311" x2="672" y1="258.4766" y2="258.4766"/><text fill="#000000" font-family="sans-serif" font-size="14" font-weight="bold" lengthAdjust="spacing" textLength="54" x="316" y="274.0117">request</text><text fill="#000000" font-family="sans-serif" font-size="14" lengthAdjust="spacing" textLength="12" x="387" y="274.0117">   </text><line style="stroke:#000000;stroke-width:1.0;" x1="382" x2="382" y1="258.4766" y2="278.9648"/><rect fill="none" height="61.4648" rx="5" ry="5" style="stroke:#000000;stroke-width:1.5;" width="361" x="311" y="217.5"/><rect fill="#F1F1F1" height="266.3477" rx="5" ry="5" style="stroke:#F1F1F1;stroke-width:1.5;" width="376" x="709" y="39"/><text fill="#000000" font-family="sans-serif" font-size="14" font-weight="bold" lengthAdjust="spacing" textLength="96" x="714" y="54.5352">resourceType</text><text fill="#000000" font-family="sans-serif" font-size="14" lengthAdjust="spacing" textLength="32" x="839" y="54.5352">Task</text><line style="stroke:#000000;stroke-width:1.0;" x1="834" x2="834" y1="39" y2="59.4883"/><line style="stroke:#000000;stroke-width:1.0;" x1="709" x2="1085" y1="59.4883" y2="59.4883"/><text fill="#000000" font-family="sans-serif" font-size="14" font-weight="bold" lengthAdjust="spacing" textLength="14" x="714" y="75.0234">id</text><text fill="#000000" font-family="sans-serif" font-size="14" lengthAdjust="spacing" textLength="241" x="839" y="75.0234">HIVLabOrderRejectionTaskExample</text><line style="stroke:#000000;stroke-width:1.0;" x1="834" x2="834" y1="59.4883" y2="79.9766"/><line style="stroke:#000000;stroke-width:1.0;" x1="709" x2="1085" y1="79.9766" y2="79.9766"/><text fill="#000000" font-family="sans-serif" font-size="14" font-weight="bold" lengthAdjust="spacing" textLength="36" x="714" y="95.5117">meta</text><text fill="#000000" font-family="sans-serif" font-size="14" lengthAdjust="spacing" textLength="12" x="839" y="95.5117">   </text><line style="stroke:#000000;stroke-width:1.0;" x1="834" x2="834" y1="79.9766" y2="100.4648"/><line style="stroke:#000000;stroke-width:1.0;" x1="709" x2="1085" y1="100.4648" y2="100.4648"/><text fill="#000000" font-family="sans-serif" font-size="14" font-weight="bold" lengthAdjust="spacing" textLength="67" x="714" y="116">identifier</text><text fill="#000000" font-family="sans-serif" font-size="14" lengthAdjust="spacing" textLength="12" x="839" y="116">   </text><line style="stroke:#000000;stroke-width:1.0;" x1="834" x2="834" y1="100.4648" y2="120.9531"/><line style="stroke:#000000;stroke-width:1.0;" x1="709" x2="1085" y1="120.9531" y2="120.9531"/><text fill="#000000" font-family="sans-serif" font-size="14" font-weight="bold" lengthAdjust="spacing" textLength="63" x="714" y="136.4883">basedOn</text><text fill="#000000" font-family="sans-serif" font-size="14" lengthAdjust="spacing" textLength="12" x="839" y="136.4883">   </text><line style="stroke:#000000;stroke-width:1.0;" x1="834" x2="834" y1="120.9531" y2="141.4414"/><line style="stroke:#000000;stroke-width:1.0;" x1="709" x2="1085" y1="141.4414" y2="141.4414"/><text fill="#000000" font-family="sans-serif" font-size="14" font-weight="bold" lengthAdjust="spacing" textLength="45" x="714" y="156.9766">status</text><text fill="#000000" font-family="sans-serif" font-size="14" lengthAdjust="spacing" textLength="55" x="839" y="156.9766">rejected</text><line style="stroke:#000000;stroke-width:1.0;" x1="834" x2="834" y1="141.4414" y2="161.9297"/><line style="stroke:#000000;stroke-width:1.0;" x1="709" x2="1085" y1="161.9297" y2="161.9297"/><text fill="#000000" font-family="sans-serif" font-size="14" font-weight="bold" lengthAdjust="spacing" textLength="97" x="714" y="177.4648">statusReason</text><text fill="#000000" font-family="sans-serif" font-size="14" lengthAdjust="spacing" textLength="12" x="839" y="177.4648">   </text><line style="stroke:#000000;stroke-width:1.0;" x1="834" x2="834" y1="161.9297" y2="182.418"/><line style="stroke:#000000;stroke-width:1.0;" x1="709" x2="1085" y1="182.418" y2="182.418"/><text fill="#000000" font-family="sans-serif" font-size="14" font-weight="bold" lengthAdjust="spacing" textLength="43" x="714" y="197.9531">intent</text><text fill="#000000" font-family="sans-serif" font-size="14" lengthAdjust="spacing" textLength="38" x="839" y="197.9531">order</text><line style="stroke:#000000;stroke-width:1.0;" x1="834" x2="834" y1="182.418" y2="202.9063"/><line style="stroke:#000000;stroke-width:1.0;" x1="709" x2="1085" y1="202.9063" y2="202.9063"/><text fill="#000000" font-family="sans-serif" font-size="14" font-weight="bold" lengthAdjust="spacing" textLength="115" x="714" y="218.4414">executionPeriod</text><text fill="#000000" font-family="sans-serif" font-size="14" lengthAdjust="spacing" textLength="12" x="839" y="218.4414">   </text><line style="stroke:#000000;stroke-width:1.0;" x1="834" x2="834" y1="202.9063" y2="223.3945"/><line style="stroke:#000000;stroke-width:1.0;" x1="709" x2="1085" y1="223.3945" y2="223.3945"/><text fill="#000000" font-family="sans-serif" font-size="14" font-weight="bold" lengthAdjust="spacing" textLength="91" x="714" y="238.9297">lastModified</text><text fill="#000000" font-family="sans-serif" font-size="14" lengthAdjust="spacing" textLength="88" x="839" y="238.9297">2022-07-30</text><line style="stroke:#000000;stroke-width:1.0;" x1="834" x2="834" y1="223.3945" y2="243.8828"/><line style="stroke:#000000;stroke-width:1.0;" x1="709" x2="1085" y1="243.8828" y2="243.8828"/><text fill="#000000" font-family="sans-serif" font-size="14" font-weight="bold" lengthAdjust="spacing" textLength="68" x="714" y="259.418">requester</text><text fill="#000000" font-family="sans-serif" font-size="14" lengthAdjust="spacing" textLength="12" x="839" y="259.418">   </text><line style="stroke:#000000;stroke-width:1.0;" x1="834" x2="834" y1="243.8828" y2="264.3711"/><line style="stroke:#000000;stroke-width:1.0;" x1="709" x2="1085" y1="264.3711" y2="264.3711"/><text fill="#000000" font-family="sans-serif" font-size="14" font-weight="bold" lengthAdjust="spacing" textLength="44" x="714" y="279.9063">owner</text><text fill="#000000" font-family="sans-serif" font-size="14" lengthAdjust="spacing" textLength="12" x="839" y="279.9063">   </text><line style="stroke:#000000;stroke-width:1.0;" x1="834" x2="834" y1="264.3711" y2="284.8594"/><line style="stroke:#000000;stroke-width:1.0;" x1="709" x2="1085" y1="284.8594" y2="284.8594"/><text fill="#000000" font-family="sans-serif" font-size="14" font-weight="bold" lengthAdjust="spacing" textLength="32" x="714" y="300.3945">note</text><text fill="#000000" font-family="sans-serif" font-size="14" lengthAdjust="spacing" textLength="12" x="839" y="300.3945">   </text><line style="stroke:#000000;stroke-width:1.0;" x1="834" x2="834" y1="284.8594" y2="305.3477"/><rect fill="none" height="266.3477" rx="5" ry="5" style="stroke:#000000;stroke-width:1.5;" width="376" x="709" y="39"/><rect fill="#F1F1F1" height="20.4883" rx="5" ry="5" style="stroke:#F1F1F1;stroke-width:1.5;" width="80" x="1259.5" y="25"/><text fill="#000000" font-family="sans-serif" font-size="14" font-weight="bold" lengthAdjust="spacing" textLength="48" x="1264.5" y="40.5352">profile</text><text fill="#000000" font-family="sans-serif" font-size="14" lengthAdjust="spacing" textLength="12" x="1322.5" y="40.5352">   </text><line style="stroke:#000000;stroke-width:1.0;" x1="1317.5" x2="1317.5" y1="25" y2="45.4883"/><rect fill="none" height="20.4883" rx="5" ry="5" style="stroke:#000000;stroke-width:1.5;" width="80" x="1259.5" y="25"/><rect fill="#F1F1F1" height="20.4883" rx="5" ry="5" style="stroke:#F1F1F1;stroke-width:1.5;" width="458" x="1519.5" y="10"/><text fill="#000000" font-family="sans-serif" font-size="14" lengthAdjust="spacing" textLength="448" x="1524.5" y="25.5352">http://openhie.org/fhir/hiv-cbs/StructureDefinition/hiv-lab-task</text><rect fill="none" height="20.4883" rx="5" ry="5" style="stroke:#000000;stroke-width:1.5;" width="458" x="1519.5" y="10"/><rect fill="#F1F1F1" height="20.4883" rx="5" ry="5" style="stroke:#F1F1F1;stroke-width:1.5;" width="22" x="1287.5" y="73"/><text fill="#000000" font-family="sans-serif" font-size="14" lengthAdjust="spacing" textLength="12" x="1292.5" y="88.5352">   </text><rect fill="none" height="20.4883" rx="5" ry="5" style="stroke:#000000;stroke-width:1.5;" width="22" x="1287.5" y="73"/><rect fill="#F1F1F1" height="61.4648" rx="5" ry="5" style="stroke:#F1F1F1;stroke-width:1.5;" width="469" x="1514" y="48.5"/><text fill="#000000" font-family="sans-serif" font-size="14" font-weight="bold" lengthAdjust="spacing" textLength="31" x="1519" y="64.0352">type</text><text fill="#000000" font-family="sans-serif" font-size="14" lengthAdjust="spacing" textLength="12" x="1581" y="64.0352">   </text><line style="stroke:#000000;stroke-width:1.0;" x1="1576" x2="1576" y1="48.5" y2="68.9883"/><line style="stroke:#000000;stroke-width:1.0;" x1="1514" x2="1983" y1="68.9883" y2="68.9883"/><text fill="#000000" font-family="sans-serif" font-size="14" font-weight="bold" lengthAdjust="spacing" textLength="52" x="1519" y="84.5234">system</text><text fill="#000000" font-family="sans-serif" font-size="14" lengthAdjust="spacing" textLength="397" x="1581" y="84.5234">http://openhie.org/fhir/hiv-cbs/lab-integration/order-id</text><line style="stroke:#000000;stroke-width:1.0;" x1="1576" x2="1576" y1="68.9883" y2="89.4766"/><line style="stroke:#000000;stroke-width:1.0;" x1="1514" x2="1983" y1="89.4766" y2="89.4766"/><text fill="#000000" font-family="sans-serif" font-size="14" font-weight="bold" lengthAdjust="spacing" textLength="38" x="1519" y="105.0117">value</text><text fill="#000000" font-family="sans-serif" font-size="14" lengthAdjust="spacing" textLength="92" x="1581" y="105.0117">ORDER12345</text><line style="stroke:#000000;stroke-width:1.0;" x1="1576" x2="1576" y1="89.4766" y2="109.9648"/><rect fill="none" height="61.4648" rx="5" ry="5" style="stroke:#000000;stroke-width:1.5;" width="469" x="1514" y="48.5"/><rect fill="#F1F1F1" height="20.4883" rx="5" ry="5" style="stroke:#F1F1F1;stroke-width:1.5;" width="80" x="2157.5" y="48"/><text fill="#000000" font-family="sans-serif" font-size="14" font-weight="bold" lengthAdjust="spacing" textLength="48" x="2162.5" y="63.5352">coding</text><text fill="#000000" font-family="sans-serif" font-size="14" lengthAdjust="spacing" textLength="12" x="2220.5" y="63.5352">   </text><line style="stroke:#000000;stroke-width:1.0;" x1="2215.5" x2="2215.5" y1="48" y2="68.4883"/><rect fill="none" height="20.4883" rx="5" ry="5" style="stroke:#000000;stroke-width:1.5;" width="80" x="2157.5" y="48"/><rect fill="#F1F1F1" height="20.4883" rx="5" ry="5" style="stroke:#F1F1F1;stroke-width:1.5;" width="22" x="2412" y="48"/><text fill="#000000" font-family="sans-serif" font-size="14" lengthAdjust="spacing" textLength="12" x="2417" y="63.5352">   </text><rect fill="none" height="20.4883" rx="5" ry="5" style="stroke:#000000;stroke-width:1.5;" width="22" x="2412" y="48"/><rect fill="#F1F1F1" height="40.9766" rx="5" ry="5" style="stroke:#F1F1F1;stroke-width:1.5;" width="413" x="2473" y="37.5"/><text fill="#000000" font-family="sans-serif" font-size="14" font-weight="bold" lengthAdjust="spacing" textLength="52" x="2478" y="53.0352">system</text><text fill="#000000" font-family="sans-serif" font-size="14" lengthAdjust="spacing" textLength="341" x="2540" y="53.0352">http://terminology.hl7.org/CodeSystem/v2-0203</text><line style="stroke:#000000;stroke-width:1.0;" x1="2535" x2="2535" y1="37.5" y2="57.9883"/><line style="stroke:#000000;stroke-width:1.0;" x1="2473" x2="2886" y1="57.9883" y2="57.9883"/><text fill="#000000" font-family="sans-serif" font-size="14" font-weight="bold" lengthAdjust="spacing" textLength="33" x="2478" y="73.5234">code</text><text fill="#000000" font-family="sans-serif" font-size="14" lengthAdjust="spacing" textLength="26" x="2540" y="73.5234">FILL</text><line style="stroke:#000000;stroke-width:1.0;" x1="2535" x2="2535" y1="57.9883" y2="78.4766"/><rect fill="none" height="40.9766" rx="5" ry="5" style="stroke:#000000;stroke-width:1.5;" width="413" x="2473" y="37.5"/><rect fill="#F1F1F1" height="20.4883" rx="5" ry="5" style="stroke:#F1F1F1;stroke-width:1.5;" width="22" x="1287.5" y="121"/><text fill="#000000" font-family="sans-serif" font-size="14" lengthAdjust="spacing" textLength="12" x="1292.5" y="136.5352">   </text><rect fill="none" height="20.4883" rx="5" ry="5" style="stroke:#000000;stroke-width:1.5;" width="22" x="1287.5" y="121"/><rect fill="#F1F1F1" height="20.4883" rx="5" ry="5" style="stroke:#F1F1F1;stroke-width:1.5;" width="381" x="1558" y="128"/><text fill="#000000" font-family="sans-serif" font-size="14" font-weight="bold" lengthAdjust="spacing" textLength="66" x="1563" y="143.5352">reference</text><text fill="#000000" font-family="sans-serif" font-size="14" lengthAdjust="spacing" textLength="295" x="1639" y="143.5352">ServiceRequest/HIVServiceRequestExample</text><line style="stroke:#000000;stroke-width:1.0;" x1="1634" x2="1634" y1="128" y2="148.4883"/><rect fill="none" height="20.4883" rx="5" ry="5" style="stroke:#000000;stroke-width:1.5;" width="381" x="1558" y="128"/><rect fill="#F1F1F1" height="20.4883" rx="5" ry="5" style="stroke:#F1F1F1;stroke-width:1.5;" width="80" x="1259.5" y="162"/><text fill="#000000" font-family="sans-serif" font-size="14" font-weight="bold" lengthAdjust="spacing" textLength="48" x="1264.5" y="177.5352">coding</text><text fill="#000000" font-family="sans-serif" font-size="14" lengthAdjust="spacing" textLength="12" x="1322.5" y="177.5352">   </text><line style="stroke:#000000;stroke-width:1.0;" x1="1317.5" x2="1317.5" y1="162" y2="182.4883"/><rect fill="none" height="20.4883" rx="5" ry="5" style="stroke:#000000;stroke-width:1.5;" width="80" x="1259.5" y="162"/><rect fill="#F1F1F1" height="20.4883" rx="5" ry="5" style="stroke:#F1F1F1;stroke-width:1.5;" width="22" x="1736.5" y="166"/><text fill="#000000" font-family="sans-serif" font-size="14" lengthAdjust="spacing" textLength="12" x="1741.5" y="181.5352">   </text><rect fill="none" height="20.4883" rx="5" ry="5" style="stroke:#000000;stroke-width:1.5;" width="22" x="1736.5" y="166"/><rect fill="#F1F1F1" height="40.9766" rx="5" ry="5" style="stroke:#F1F1F1;stroke-width:1.5;" width="230" x="2082.5" y="155.5"/><text fill="#000000" font-family="sans-serif" font-size="14" font-weight="bold" lengthAdjust="spacing" textLength="52" x="2087.5" y="171.0352">system</text><text fill="#000000" font-family="sans-serif" font-size="14" lengthAdjust="spacing" textLength="158" x="2149.5" y="171.0352">http://snomed.info/sct</text><line style="stroke:#000000;stroke-width:1.0;" x1="2144.5" x2="2144.5" y1="155.5" y2="175.9883"/><line style="stroke:#000000;stroke-width:1.0;" x1="2082.5" x2="2312.5" y1="175.9883" y2="175.9883"/><text fill="#000000" font-family="sans-serif" font-size="14" font-weight="bold" lengthAdjust="spacing" textLength="33" x="2087.5" y="191.5234">code</text><text fill="#000000" font-family="sans-serif" font-size="14" lengthAdjust="spacing" textLength="81" x="2149.5" y="191.5234">135839007</text><line style="stroke:#000000;stroke-width:1.0;" x1="2144.5" x2="2144.5" y1="175.9883" y2="196.4766"/><rect fill="none" height="40.9766" rx="5" ry="5" style="stroke:#000000;stroke-width:1.5;" width="230" x="2082.5" y="155.5"/><rect fill="#F1F1F1" height="20.4883" rx="5" ry="5" style="stroke:#F1F1F1;stroke-width:1.5;" width="134" x="1232.5" y="202"/><text fill="#000000" font-family="sans-serif" font-size="14" font-weight="bold" lengthAdjust="spacing" textLength="26" x="1237.5" y="217.5352">end</text><text fill="#000000" font-family="sans-serif" font-size="14" lengthAdjust="spacing" textLength="88" x="1273.5" y="217.5352">2022-07-30</text><line style="stroke:#000000;stroke-width:1.0;" x1="1268.5" x2="1268.5" y1="202" y2="222.4883"/><rect fill="none" height="20.4883" rx="5" ry="5" style="stroke:#000000;stroke-width:1.5;" width="134" x="1232.5" y="202"/><rect fill="#F1F1F1" height="20.4883" rx="5" ry="5" style="stroke:#F1F1F1;stroke-width:1.5;" width="355" x="1122" y="240"/><text fill="#000000" font-family="sans-serif" font-size="14" font-weight="bold" lengthAdjust="spacing" textLength="66" x="1127" y="255.5352">reference</text><text fill="#000000" font-family="sans-serif" font-size="14" lengthAdjust="spacing" textLength="269" x="1203" y="255.5352">Organization/HIVOrganizationExample</text><line style="stroke:#000000;stroke-width:1.0;" x1="1198" x2="1198" y1="240" y2="260.4883"/><rect fill="none" height="20.4883" rx="5" ry="5" style="stroke:#000000;stroke-width:1.5;" width="355" x="1122" y="240"/><rect fill="#F1F1F1" height="20.4883" rx="5" ry="5" style="stroke:#F1F1F1;stroke-width:1.5;" width="355" x="1122" y="278"/><text fill="#000000" font-family="sans-serif" font-size="14" font-weight="bold" lengthAdjust="spacing" textLength="66" x="1127" y="293.5352">reference</text><text fill="#000000" font-family="sans-serif" font-size="14" lengthAdjust="spacing" textLength="269" x="1203" y="293.5352">Organization/HIVOrganizationExample</text><line style="stroke:#000000;stroke-width:1.0;" x1="1198" x2="1198" y1="278" y2="298.4883"/><rect fill="none" height="20.4883" rx="5" ry="5" style="stroke:#000000;stroke-width:1.5;" width="355" x="1122" y="278"/><rect fill="#F1F1F1" height="20.4883" rx="5" ry="5" style="stroke:#F1F1F1;stroke-width:1.5;" width="22" x="1287.5" y="316"/><text fill="#000000" font-family="sans-serif" font-size="14" lengthAdjust="spacing" textLength="12" x="1292.5" y="331.5352">   </text><rect fill="none" height="20.4883" rx="5" ry="5" style="stroke:#000000;stroke-width:1.5;" width="22" x="1287.5" y="316"/><rect fill="#F1F1F1" height="61.4648" rx="5" ry="5" style="stroke:#F1F1F1;stroke-width:1.5;" width="344" x="1576.5" y="295.5"/><text fill="#000000" font-family="sans-serif" font-size="14" font-weight="bold" lengthAdjust="spacing" textLength="117" x="1581.5" y="311.0352">authorReference</text><text fill="#000000" font-family="sans-serif" font-size="14" lengthAdjust="spacing" textLength="12" x="1708.5" y="311.0352">   </text><line style="stroke:#000000;stroke-width:1.0;" x1="1703.5" x2="1703.5" y1="295.5" y2="315.9883"/><line style="stroke:#000000;stroke-width:1.0;" x1="1576.5" x2="1920.5" y1="315.9883" y2="315.9883"/><text fill="#000000" font-family="sans-serif" font-size="14" font-weight="bold" lengthAdjust="spacing" textLength="33" x="1581.5" y="331.5234">time</text><text fill="#000000" font-family="sans-serif" font-size="14" lengthAdjust="spacing" textLength="207" x="1708.5" y="331.5234">2015-02-07T13:28:17-05:00</text><line style="stroke:#000000;stroke-width:1.0;" x1="1703.5" x2="1703.5" y1="315.9883" y2="336.4766"/><line style="stroke:#000000;stroke-width:1.0;" x1="1576.5" x2="1920.5" y1="336.4766" y2="336.4766"/><text fill="#000000" font-family="sans-serif" font-size="14" font-weight="bold" lengthAdjust="spacing" textLength="28" x="1581.5" y="352.0117">text</text><text fill="#000000" font-family="sans-serif" font-size="14" lengthAdjust="spacing" textLength="146" x="1708.5" y="352.0117">additional notes here</text><line style="stroke:#000000;stroke-width:1.0;" x1="1703.5" x2="1703.5" y1="336.4766" y2="356.9648"/><rect fill="none" height="61.4648" rx="5" ry="5" style="stroke:#000000;stroke-width:1.5;" width="344" x="1576.5" y="295.5"/><rect fill="#F1F1F1" height="20.4883" rx="5" ry="5" style="stroke:#F1F1F1;stroke-width:1.5;" width="355" x="2020" y="295"/><text fill="#000000" font-family="sans-serif" font-size="14" font-weight="bold" lengthAdjust="spacing" textLength="66" x="2025" y="310.5352">reference</text><text fill="#000000" font-family="sans-serif" font-size="14" lengthAdjust="spacing" textLength="269" x="2101" y="310.5352">Organization/HIVOrganizationExample</text><line style="stroke:#000000;stroke-width:1.0;" x1="2096" x2="2096" y1="295" y2="315.4883"/><rect fill="none" height="20.4883" rx="5" ry="5" style="stroke:#000000;stroke-width:1.5;" width="355" x="2020" y="295"/><rect fill="#F1F1F1" height="40.9766" rx="5" ry="5" style="stroke:#F1F1F1;stroke-width:1.5;" width="355" x="719.5" y="323.5"/><text fill="#000000" font-family="sans-serif" font-size="14" font-weight="bold" lengthAdjust="spacing" textLength="55" x="724.5" y="339.0352">method</text><text fill="#000000" font-family="sans-serif" font-size="14" lengthAdjust="spacing" textLength="27" x="789.5" y="339.0352">PUT</text><line style="stroke:#000000;stroke-width:1.0;" x1="784.5" x2="784.5" y1="323.5" y2="343.9883"/><line style="stroke:#000000;stroke-width:1.0;" x1="719.5" x2="1074.5" y1="343.9883" y2="343.9883"/><text fill="#000000" font-family="sans-serif" font-size="14" font-weight="bold" lengthAdjust="spacing" textLength="20" x="724.5" y="359.5234">url</text><text fill="#000000" font-family="sans-serif" font-size="14" lengthAdjust="spacing" textLength="280" x="789.5" y="359.5234">Task/HIVLabOrderRejectionTaskExample</text><line style="stroke:#000000;stroke-width:1.0;" x1="784.5" x2="784.5" y1="343.9883" y2="364.4766"/><rect fill="none" height="40.9766" rx="5" ry="5" style="stroke:#000000;stroke-width:1.5;" width="355" x="719.5" y="323.5"/><path d="M1328,35 L1341,35 C1408.4029,35 1482.0422,32.9201 1547.9275,30.3093 " fill="none" style="stroke:#000000;stroke-width:1.0;stroke-dasharray:3.0,3.0;"/><path d="M1548.0492,33.3422 L1550.2022,30.2181 L1547.8059,27.2765 L1555.5097,30.0052 L1548.0492,33.3422 " fill="#000000" style="stroke:#000000;stroke-width:1.0;"/><ellipse cx="1328" cy="35" fill="#000000" rx="3" ry="3" style="stroke:#000000;stroke-width:1.0;"/><path d="M1073,89 L1086,89 C1105.4797,89 1103.944,71.3102 1122,64 C1164.0363,46.981 1215.5303,39.9404 1252.1155,37.033 " fill="none" style="stroke:#000000;stroke-width:1.0;stroke-dasharray:3.0,3.0;"/><path d="M1252.3394,40.0617 L1254.387,36.8651 L1251.8916,34.0043 L1259.6873,36.4732 L1252.3394,40.0617 " fill="#000000" style="stroke:#000000;stroke-width:1.0;"/><ellipse cx="1073" cy="89" fill="#000000" rx="3" ry="3" style="stroke:#000000;stroke-width:1.0;"/><path d="M2423.7751,58 L2436.7751,58 C2443.9698,58 2453.9797,58 2465.8638,58 " fill="none" style="stroke:#000000;stroke-width:1.0;stroke-dasharray:3.0,3.0;"/><path d="M2465.8638,61.0533 L2468.1538,58 L2465.8638,54.9467 L2473.4972,58 L2465.8638,61.0533 " fill="#000000" style="stroke:#000000;stroke-width:1.0;"/><ellipse cx="2423.7751" cy="58" fill="#000000" rx="3" ry="3" style="stroke:#000000;stroke-width:1.0;"/><path d="M2226,58 L2239,58 C2299.5341,58 2371.24,58 2404.634,58 " fill="none" style="stroke:#000000;stroke-width:1.0;stroke-dasharray:3.0,3.0;"/><path d="M2404.634,61.0538 L2406.9243,58 L2404.634,54.9462 L2412.2684,58 L2404.634,61.0538 " fill="#000000" style="stroke:#000000;stroke-width:1.0;"/><ellipse cx="2226" cy="58" fill="#000000" rx="3" ry="3" style="stroke:#000000;stroke-width:1.0;"/><path d="M1971,58 L1984,58 C2041.2108,58 2107.0653,58 2150.2212,58 " fill="none" style="stroke:#000000;stroke-width:1.0;stroke-dasharray:3.0,3.0;"/><path d="M2150.2212,61.0085 L2152.4775,58 L2150.2212,54.9915 L2157.7423,58 L2150.2212,61.0085 " fill="#000000" style="stroke:#000000;stroke-width:1.0;"/><ellipse cx="1971" cy="58" fill="#000000" rx="3" ry="3" style="stroke:#000000;stroke-width:1.0;"/><path d="M1299.4502,83.0049 L1312.4497,82.8888 C1342.5604,82.62 1423.0392,81.9014 1506.7501,81.154 " fill="none" style="stroke:#000000;stroke-width:1.0;stroke-dasharray:3.0,3.0;"/><path d="M1506.7772,84.1888 L1509.0262,81.1337 L1506.723,78.1192 L1514.3371,81.0863 L1506.7772,84.1888 " fill="#000000" style="stroke:#000000;stroke-width:1.0;"/><ellipse cx="1299.4502" cy="83.0049" fill="#000000" rx="3" ry="3" style="stroke:#000000;stroke-width:1.0;"/><path d="M1073,110 L1086,110 C1158.4272,110 1243.6157,94.4457 1280.4695,86.9486 " fill="none" style="stroke:#000000;stroke-width:1.0;stroke-dasharray:3.0,3.0;"/><path d="M1281.0905,89.951 L1282.7213,86.4829 L1279.8485,83.9462 L1287.9754,85.3961 L1281.0905,89.951 " fill="#000000" style="stroke:#000000;stroke-width:1.0;"/><ellipse cx="1073" cy="110" fill="#000000" rx="3" ry="3" style="stroke:#000000;stroke-width:1.0;"/><path d="M1299.4513,130.9914 L1312.4497,131.1945 C1347.812,131.7471 1452.6442,133.3851 1550.5952,134.9156 " fill="none" style="stroke:#000000;stroke-width:1.0;stroke-dasharray:3.0,3.0;"/><path d="M1550.5475,137.9716 L1552.8873,134.9514 L1550.643,131.8595 L1558.2354,135.0349 L1550.5475,137.9716 " fill="#000000" style="stroke:#000000;stroke-width:1.0;"/><ellipse cx="1299.4513" cy="130.9914" fill="#000000" rx="3" ry="3" style="stroke:#000000;stroke-width:1.0;"/><path d="M1073,130 L1086,130 C1157.853,130 1243.3389,130.5761 1280.3694,130.8538 " fill="none" style="stroke:#000000;stroke-width:1.0;stroke-dasharray:3.0,3.0;"/><path d="M1280.3464,133.8712 L1282.6325,130.871 L1280.3924,127.8363 L1287.913,130.9113 L1280.3464,133.8712 " fill="#000000" style="stroke:#000000;stroke-width:1.0;"/><ellipse cx="1073" cy="130" fill="#000000" rx="3" ry="3" style="stroke:#000000;stroke-width:1.0;"/><path d="M1748.4497,176 L1761.4497,176 C1806.2776,176 1962.7435,176 2075.3088,176 " fill="none" style="stroke:#000000;stroke-width:1.0;stroke-dasharray:3.0,3.0;"/><path d="M2075.3088,179.0751 L2077.6152,176 L2075.3088,172.9249 L2082.9967,176 L2075.3088,179.0751 " fill="#000000" style="stroke:#000000;stroke-width:1.0;"/><ellipse cx="1748.4497" cy="176" fill="#000000" rx="3" ry="3" style="stroke:#000000;stroke-width:1.0;"/><path d="M1328,172 L1341,172 C1490.8555,172 1671.7326,174.745 1729.397,175.6871 " fill="none" style="stroke:#000000;stroke-width:1.0;stroke-dasharray:3.0,3.0;"/><path d="M1729.3469,178.7253 L1731.6757,175.7247 L1729.4472,172.6489 L1736.9925,175.8124 L1729.3469,178.7253 " fill="#000000" style="stroke:#000000;stroke-width:1.0;"/><ellipse cx="1328" cy="172" fill="#000000" rx="3" ry="3" style="stroke:#000000;stroke-width:1.0;"/><path d="M1073,171 L1086,171 C1143.2114,171 1209.0658,171.3652 1252.2215,171.6542 " fill="none" style="stroke:#000000;stroke-width:1.0;stroke-dasharray:3.0,3.0;"/><path d="M1252.201,174.6627 L1254.4778,171.6696 L1252.2419,168.6458 L1259.7426,171.7054 L1252.201,174.6627 " fill="#000000" style="stroke:#000000;stroke-width:1.0;"/><ellipse cx="1073" cy="171" fill="#000000" rx="3" ry="3" style="stroke:#000000;stroke-width:1.0;"/><path d="M1073,213 L1086,213 C1132.301,213 1184.2628,212.7608 1225.2725,212.5164 " fill="none" style="stroke:#000000;stroke-width:1.0;stroke-dasharray:3.0,3.0;"/><path d="M1225.2908,215.5268 L1227.5304,212.5027 L1225.2543,209.5059 L1232.7987,212.4707 L1225.2908,215.5268 " fill="#000000" style="stroke:#000000;stroke-width:1.0;"/><ellipse cx="1073" cy="213" fill="#000000" rx="3" ry="3" style="stroke:#000000;stroke-width:1.0;"/><path d="M1073,254 L1086,254 C1095.3389,254 1104.9077,253.9611 1114.5702,253.8909 " fill="none" style="stroke:#000000;stroke-width:1.0;stroke-dasharray:3.0,3.0;"/><path d="M1114.5953,256.9976 L1116.9002,253.8721 L1114.5451,250.7843 L1122.3368,253.8281 L1114.5953,256.9976 " fill="#000000" style="stroke:#000000;stroke-width:1.0;"/><ellipse cx="1073" cy="254" fill="#000000" rx="3" ry="3" style="stroke:#000000;stroke-width:1.0;"/><path d="M1073,274 L1086,274 C1116.8328,274 1150.1221,275.4787 1181.0147,277.475 " fill="none" style="stroke:#000000;stroke-width:1.0;stroke-dasharray:3.0,3.0;"/><path d="M1180.8074,280.5948 L1183.3545,277.6304 L1181.2219,274.3552 L1188.8141,277.9931 L1180.8074,280.5948 " fill="#000000" style="stroke:#000000;stroke-width:1.0;"/><ellipse cx="1073" cy="274" fill="#000000" rx="3" ry="3" style="stroke:#000000;stroke-width:1.0;"/><path d="M1909,305 L1922,305 C1951.2687,305 1982.2897,305 2012.5453,305 " fill="none" style="stroke:#000000;stroke-width:1.0;stroke-dasharray:3.0,3.0;"/><path d="M2012.5453,308.0696 L2014.8475,305 L2012.5453,301.9304 L2020.2193,305 L2012.5453,308.0696 " fill="#000000" style="stroke:#000000;stroke-width:1.0;"/><ellipse cx="1909" cy="305" fill="#000000" rx="3" ry="3" style="stroke:#000000;stroke-width:1.0;"/><path d="M1299.4497,326 L1312.4497,326 C1350.0534,326 1466.2122,326 1569.1178,326 " fill="none" style="stroke:#000000;stroke-width:1.0;stroke-dasharray:3.0,3.0;"/><path d="M1569.1178,329.0797 L1571.4276,326 L1569.1178,322.9203 L1576.8171,326 L1569.1178,329.0797 " fill="#000000" style="stroke:#000000;stroke-width:1.0;"/><ellipse cx="1299.4497" cy="326" fill="#000000" rx="3" ry="3" style="stroke:#000000;stroke-width:1.0;"/><path d="M1073,295 L1086,295 C1102.8655,295 1105.5205,303.4126 1122,307 C1178.5514,319.3105 1247.0803,323.7775 1279.8028,325.2888 " fill="none" style="stroke:#000000;stroke-width:1.0;stroke-dasharray:3.0,3.0;"/><path d="M1279.6677,328.441 L1282.167,325.3901 L1279.9379,322.1366 L1287.6833,325.6266 L1279.6677,328.441 " fill="#000000" style="stroke:#000000;stroke-width:1.0;"/><ellipse cx="1073" cy="295" fill="#000000" rx="3" ry="3" style="stroke:#000000;stroke-width:1.0;"/><path d="M660,247 L673,247 C682.4463,247 692.006,246.3904 701.5818,245.2811 " fill="none" style="stroke:#000000;stroke-width:1.0;stroke-dasharray:3.0,3.0;"/><path d="M701.9797,248.3536 L703.8862,244.9827 L701.184,242.2086 L709.2631,244.2864 L701.9797,248.3536 " fill="#000000" style="stroke:#000000;stroke-width:1.0;"/><ellipse cx="660" cy="247" fill="#000000" rx="3" ry="3" style="stroke:#000000;stroke-width:1.0;"/><path d="M660,268 L673,268 C698.961,268 686.6362,300.8153 709,314 C712.8205,316.2524 716.7572,318.3508 720.7874,320.3054 " fill="none" style="stroke:#000000;stroke-width:1.0;stroke-dasharray:3.0,3.0;"/><path d="M719.5253,323.0521 L722.8474,321.252 L722.0495,317.5587 L727.6542,323.4606 L719.5253,323.0521 " fill="#000000" style="stroke:#000000;stroke-width:1.0;"/><ellipse cx="660" cy="268" fill="#000000" rx="3" ry="3" style="stroke:#000000;stroke-width:1.0;"/><path d="M261.7852,248 L274.7852,248 C282.0012,248 292.0209,248 303.8251,248 " fill="none" style="stroke:#000000;stroke-width:1.0;stroke-dasharray:3.0,3.0;"/><path d="M303.8251,251.0285 L306.0964,248 L303.8251,244.9715 L311.3963,248 L303.8251,251.0285 " fill="#000000" style="stroke:#000000;stroke-width:1.0;"/><ellipse cx="261.7852" cy="248" fill="#000000" rx="3" ry="3" style="stroke:#000000;stroke-width:1.0;"/><path d="M201,248 L214,248 C223.374,248 233.7885,248 242.4714,248 " fill="none" style="stroke:#000000;stroke-width:1.0;stroke-dasharray:3.0,3.0;"/><path d="M242.4714,251.0815 L244.7825,248 L242.4714,244.9185 L250.1751,248 L242.4714,251.0815 " fill="#000000" style="stroke:#000000;stroke-width:1.0;"/><ellipse cx="201" cy="248" fill="#000000" rx="3" ry="3" style="stroke:#000000;stroke-width:1.0;"/><!--MD5=[df5012b32f55dd01267e05d97b171a21]
@startjson lab-rejection-bundle
{
  "resourceType" : "Bundle",
  "id" : "LabRejection",
  "type" : "transaction",
  "entry" : [{
    "fullUrl" : "Task/HIVLabOrderRejectionTaskExample",
    "resource" : {
      "resourceType" : "Task",
      "id" : "HIVLabOrderRejectionTaskExample",
      "meta" : {
        "profile" : ["http://openhie.org/fhir/hiv-cbs/StructureDefinition/hiv-lab-task"]
      },
     
      "identifier" : [{
        "type" : {
          "coding" : [{
            "system" : "http://terminology.hl7.org/CodeSystem/v2-0203",
            "code" : "FILL"
          }]
        },
        "system" : "http://openhie.org/fhir/hiv-cbs/lab-integration/order-id",
        "value" : "ORDER12345"
      }],
      "basedOn" : [{
        "reference" : "ServiceRequest/HIVServiceRequestExample"
      }],
      "status" : "rejected",
      "statusReason" : {
        "coding" : [{
          "system" : "http://snomed.info/sct",
          "code" : "135839007"
        }]
      },
      "intent" : "order",
      "executionPeriod" : {
        "end" : "2022-07-30"
      },
      "lastModified" : "2022-07-30",
      "requester" : {
        "reference" : "Organization/HIVOrganizationExample"
      },
      "owner" : {
        "reference" : "Organization/HIVOrganizationExample"
      },
      "note" : [{
        "authorReference" : {
          "reference" : "Organization/HIVOrganizationExample"
        },
        "time" : "2015-02-07T13:28:17-05:00",
        "text" : "additional notes here"
      }]
    },
    "request" : {
      "method" : "PUT",
      "url" : "Task/HIVLabOrderRejectionTaskExample"
    }
  }]
}
@endjson

PlantUML version 1.2022.7(Mon Aug 22 19:01:30 SAST 2022)
(GPL source distribution)
Java Runtime: Java(TM) SE Runtime Environment
JVM: Java HotSpot(TM) 64-Bit Server VM
Default Encoding: UTF-8
Language: en
Country: GB
--></g></svg>