<?xml version="1.0" encoding="UTF-8" standalone="no"?><svg xmlns="http://www.w3.org/2000/svg" xmlns:xlink="http://www.w3.org/1999/xlink" contentStyleType="text/css" height="336px" preserveAspectRatio="none" style="width:2546px;height:336px;background:#FFFFFF;" version="1.1" viewBox="0 0 2546 336" width="2546px" zoomAndPan="magnify"><defs/><g><rect fill="#F1F1F1" height="81.9531" rx="5" ry="5" style="stroke:#F1F1F1;stroke-width:1.5;" width="225" x="10" y="141"/><text fill="#000000" font-family="sans-serif" font-size="14" font-weight="bold" lengthAdjust="spacing" textLength="96" x="15" y="156.5352">resourceType</text><text fill="#000000" font-family="sans-serif" font-size="14" lengthAdjust="spacing" textLength="47" x="121" y="156.5352">Bundle</text><line style="stroke:#000000;stroke-width:1.0;" x1="116" x2="116" y1="141" y2="161.4883"/><line style="stroke:#000000;stroke-width:1.0;" x1="10" x2="235" y1="161.4883" y2="161.4883"/><text fill="#000000" font-family="sans-serif" font-size="14" font-weight="bold" lengthAdjust="spacing" textLength="14" x="15" y="177.0234">id</text><text fill="#000000" font-family="sans-serif" font-size="14" lengthAdjust="spacing" textLength="109" x="121" y="177.0234">LabCancellation</text><line style="stroke:#000000;stroke-width:1.0;" x1="116" x2="116" y1="161.4883" y2="181.9766"/><line style="stroke:#000000;stroke-width:1.0;" x1="10" x2="235" y1="181.9766" y2="181.9766"/><text fill="#000000" font-family="sans-serif" font-size="14" font-weight="bold" lengthAdjust="spacing" textLength="31" x="15" y="197.5117">type</text><text fill="#000000" font-family="sans-serif" font-size="14" lengthAdjust="spacing" textLength="77" x="121" y="197.5117">transaction</text><line style="stroke:#000000;stroke-width:1.0;" x1="116" x2="116" y1="181.9766" y2="202.4648"/><line style="stroke:#000000;stroke-width:1.0;" x1="10" x2="235" y1="202.4648" y2="202.4648"/><text fill="#000000" font-family="sans-serif" font-size="14" font-weight="bold" lengthAdjust="spacing" textLength="37" x="15" y="218">entry</text><text fill="#000000" font-family="sans-serif" font-size="14" lengthAdjust="spacing" textLength="12" x="121" y="218">   </text><line style="stroke:#000000;stroke-width:1.0;" x1="116" x2="116" y1="202.4648" y2="222.9531"/><rect fill="none" height="81.9531" rx="5" ry="5" style="stroke:#000000;stroke-width:1.5;" width="225" x="10" y="141"/><rect fill="#F1F1F1" height="20.4883" rx="5" ry="5" style="stroke:#F1F1F1;stroke-width:1.5;" width="22" x="272" y="203"/><text fill="#000000" font-family="sans-serif" font-size="14" lengthAdjust="spacing" textLength="12" x="277" y="218.5352">   </text><rect fill="none" height="20.4883" rx="5" ry="5" style="stroke:#000000;stroke-width:1.5;" width="22" x="272" y="203"/><rect fill="#F1F1F1" height="61.4648" rx="5" ry="5" style="stroke:#F1F1F1;stroke-width:1.5;" width="385" x="333" y="182.5"/><text fill="#000000" font-family="sans-serif" font-size="14" font-weight="bold" lengthAdjust="spacing" textLength="46" x="338" y="198.0352">fullUrl</text><text fill="#000000" font-family="sans-serif" font-size="14" lengthAdjust="spacing" textLength="304" x="409" y="198.0352">Task/Covid19LabOrderCancellationExample</text><line style="stroke:#000000;stroke-width:1.0;" x1="404" x2="404" y1="182.5" y2="202.9883"/><line style="stroke:#000000;stroke-width:1.0;" x1="333" x2="718" y1="202.9883" y2="202.9883"/><text fill="#000000" font-family="sans-serif" font-size="14" font-weight="bold" lengthAdjust="spacing" textLength="61" x="338" y="218.5234">resource</text><text fill="#000000" font-family="sans-serif" font-size="14" lengthAdjust="spacing" textLength="12" x="409" y="218.5234">   </text><line style="stroke:#000000;stroke-width:1.0;" x1="404" x2="404" y1="202.9883" y2="223.4766"/><line style="stroke:#000000;stroke-width:1.0;" x1="333" x2="718" y1="223.4766" y2="223.4766"/><text fill="#000000" font-family="sans-serif" font-size="14" font-weight="bold" lengthAdjust="spacing" textLength="54" x="338" y="239.0117">request</text><text fill="#000000" font-family="sans-serif" font-size="14" lengthAdjust="spacing" textLength="12" x="409" y="239.0117">   </text><line style="stroke:#000000;stroke-width:1.0;" x1="404" x2="404" y1="223.4766" y2="243.9648"/><rect fill="none" height="61.4648" rx="5" ry="5" style="stroke:#000000;stroke-width:1.5;" width="385" x="333" y="182.5"/><rect fill="#F1F1F1" height="245.8594" rx="5" ry="5" style="stroke:#F1F1F1;stroke-width:1.5;" width="400" x="755" y="19"/><text fill="#000000" font-family="sans-serif" font-size="14" font-weight="bold" lengthAdjust="spacing" textLength="96" x="760" y="34.5352">resourceType</text><text fill="#000000" font-family="sans-serif" font-size="14" lengthAdjust="spacing" textLength="32" x="885" y="34.5352">Task</text><line style="stroke:#000000;stroke-width:1.0;" x1="880" x2="880" y1="19" y2="39.4883"/><line style="stroke:#000000;stroke-width:1.0;" x1="755" x2="1155" y1="39.4883" y2="39.4883"/><text fill="#000000" font-family="sans-serif" font-size="14" font-weight="bold" lengthAdjust="spacing" textLength="14" x="760" y="55.0234">id</text><text fill="#000000" font-family="sans-serif" font-size="14" lengthAdjust="spacing" textLength="265" x="885" y="55.0234">Covid19LabOrderCancellationExample</text><line style="stroke:#000000;stroke-width:1.0;" x1="880" x2="880" y1="39.4883" y2="59.9766"/><line style="stroke:#000000;stroke-width:1.0;" x1="755" x2="1155" y1="59.9766" y2="59.9766"/><text fill="#000000" font-family="sans-serif" font-size="14" font-weight="bold" lengthAdjust="spacing" textLength="36" x="760" y="75.5117">meta</text><text fill="#000000" font-family="sans-serif" font-size="14" lengthAdjust="spacing" textLength="12" x="885" y="75.5117">   </text><line style="stroke:#000000;stroke-width:1.0;" x1="880" x2="880" y1="59.9766" y2="80.4648"/><line style="stroke:#000000;stroke-width:1.0;" x1="755" x2="1155" y1="80.4648" y2="80.4648"/><text fill="#000000" font-family="sans-serif" font-size="14" font-weight="bold" lengthAdjust="spacing" textLength="67" x="760" y="96">identifier</text><text fill="#000000" font-family="sans-serif" font-size="14" lengthAdjust="spacing" textLength="12" x="885" y="96">   </text><line style="stroke:#000000;stroke-width:1.0;" x1="880" x2="880" y1="80.4648" y2="100.9531"/><line style="stroke:#000000;stroke-width:1.0;" x1="755" x2="1155" y1="100.9531" y2="100.9531"/><text fill="#000000" font-family="sans-serif" font-size="14" font-weight="bold" lengthAdjust="spacing" textLength="63" x="760" y="116.4883">basedOn</text><text fill="#000000" font-family="sans-serif" font-size="14" lengthAdjust="spacing" textLength="12" x="885" y="116.4883">   </text><line style="stroke:#000000;stroke-width:1.0;" x1="880" x2="880" y1="100.9531" y2="121.4414"/><line style="stroke:#000000;stroke-width:1.0;" x1="755" x2="1155" y1="121.4414" y2="121.4414"/><text fill="#000000" font-family="sans-serif" font-size="14" font-weight="bold" lengthAdjust="spacing" textLength="45" x="760" y="136.9766">status</text><text fill="#000000" font-family="sans-serif" font-size="14" lengthAdjust="spacing" textLength="64" x="885" y="136.9766">cancelled</text><line style="stroke:#000000;stroke-width:1.0;" x1="880" x2="880" y1="121.4414" y2="141.9297"/><line style="stroke:#000000;stroke-width:1.0;" x1="755" x2="1155" y1="141.9297" y2="141.9297"/><text fill="#000000" font-family="sans-serif" font-size="14" font-weight="bold" lengthAdjust="spacing" textLength="97" x="760" y="157.4648">statusReason</text><text fill="#000000" font-family="sans-serif" font-size="14" lengthAdjust="spacing" textLength="12" x="885" y="157.4648">   </text><line style="stroke:#000000;stroke-width:1.0;" x1="880" x2="880" y1="141.9297" y2="162.418"/><line style="stroke:#000000;stroke-width:1.0;" x1="755" x2="1155" y1="162.418" y2="162.418"/><text fill="#000000" font-family="sans-serif" font-size="14" font-weight="bold" lengthAdjust="spacing" textLength="43" x="760" y="177.9531">intent</text><text fill="#000000" font-family="sans-serif" font-size="14" lengthAdjust="spacing" textLength="38" x="885" y="177.9531">order</text><line style="stroke:#000000;stroke-width:1.0;" x1="880" x2="880" y1="162.418" y2="182.9063"/><line style="stroke:#000000;stroke-width:1.0;" x1="755" x2="1155" y1="182.9063" y2="182.9063"/><text fill="#000000" font-family="sans-serif" font-size="14" font-weight="bold" lengthAdjust="spacing" textLength="115" x="760" y="198.4414">executionPeriod</text><text fill="#000000" font-family="sans-serif" font-size="14" lengthAdjust="spacing" textLength="12" x="885" y="198.4414">   </text><line style="stroke:#000000;stroke-width:1.0;" x1="880" x2="880" y1="182.9063" y2="203.3945"/><line style="stroke:#000000;stroke-width:1.0;" x1="755" x2="1155" y1="203.3945" y2="203.3945"/><text fill="#000000" font-family="sans-serif" font-size="14" font-weight="bold" lengthAdjust="spacing" textLength="91" x="760" y="218.9297">lastModified</text><text fill="#000000" font-family="sans-serif" font-size="14" lengthAdjust="spacing" textLength="88" x="885" y="218.9297">2022-07-30</text><line style="stroke:#000000;stroke-width:1.0;" x1="880" x2="880" y1="203.3945" y2="223.8828"/><line style="stroke:#000000;stroke-width:1.0;" x1="755" x2="1155" y1="223.8828" y2="223.8828"/><text fill="#000000" font-family="sans-serif" font-size="14" font-weight="bold" lengthAdjust="spacing" textLength="68" x="760" y="239.418">requester</text><text fill="#000000" font-family="sans-serif" font-size="14" lengthAdjust="spacing" textLength="12" x="885" y="239.418">   </text><line style="stroke:#000000;stroke-width:1.0;" x1="880" x2="880" y1="223.8828" y2="244.3711"/><line style="stroke:#000000;stroke-width:1.0;" x1="755" x2="1155" y1="244.3711" y2="244.3711"/><text fill="#000000" font-family="sans-serif" font-size="14" font-weight="bold" lengthAdjust="spacing" textLength="44" x="760" y="259.9063">owner</text><text fill="#000000" font-family="sans-serif" font-size="14" lengthAdjust="spacing" textLength="12" x="885" y="259.9063">   </text><line style="stroke:#000000;stroke-width:1.0;" x1="880" x2="880" y1="244.3711" y2="264.8594"/><rect fill="none" height="245.8594" rx="5" ry="5" style="stroke:#000000;stroke-width:1.5;" width="400" x="755" y="19"/><rect fill="#F1F1F1" height="20.4883" rx="5" ry="5" style="stroke:#F1F1F1;stroke-width:1.5;" width="80" x="1346.5" y="17"/><text fill="#000000" font-family="sans-serif" font-size="14" font-weight="bold" lengthAdjust="spacing" textLength="48" x="1351.5" y="32.5352">profile</text><text fill="#000000" font-family="sans-serif" font-size="14" lengthAdjust="spacing" textLength="12" x="1409.5" y="32.5352">   </text><line style="stroke:#000000;stroke-width:1.0;" x1="1404.5" x2="1404.5" y1="17" y2="37.4883"/><rect fill="none" height="20.4883" rx="5" ry="5" style="stroke:#000000;stroke-width:1.5;" width="80" x="1346.5" y="17"/><rect fill="#F1F1F1" height="20.4883" rx="5" ry="5" style="stroke:#F1F1F1;stroke-width:1.5;" width="598" x="1643.5" y="10"/><text fill="#000000" font-family="sans-serif" font-size="14" lengthAdjust="spacing" textLength="588" x="1648.5" y="25.5352">http://openhie.org/fhir/covid19-casereporting/StructureDefinition/covid19-lab-task</text><rect fill="none" height="20.4883" rx="5" ry="5" style="stroke:#000000;stroke-width:1.5;" width="598" x="1643.5" y="10"/><rect fill="#F1F1F1" height="20.4883" rx="5" ry="5" style="stroke:#F1F1F1;stroke-width:1.5;" width="22" x="1374.5" y="60"/><text fill="#000000" font-family="sans-serif" font-size="14" lengthAdjust="spacing" textLength="12" x="1379.5" y="75.5352">   </text><rect fill="none" height="20.4883" rx="5" ry="5" style="stroke:#000000;stroke-width:1.5;" width="22" x="1374.5" y="60"/><rect fill="#F1F1F1" height="40.9766" rx="5" ry="5" style="stroke:#F1F1F1;stroke-width:1.5;" width="649" x="1618" y="48.5"/><text fill="#000000" font-family="sans-serif" font-size="14" font-weight="bold" lengthAdjust="spacing" textLength="52" x="1623" y="64.0352">system</text><text fill="#000000" font-family="sans-serif" font-size="14" lengthAdjust="spacing" textLength="577" x="1685" y="64.0352">http://openhie.org/fhir/covid19-casereporting/lab-integration/test-order-number</text><line style="stroke:#000000;stroke-width:1.0;" x1="1680" x2="1680" y1="48.5" y2="68.9883"/><line style="stroke:#000000;stroke-width:1.0;" x1="1618" x2="2267" y1="68.9883" y2="68.9883"/><text fill="#000000" font-family="sans-serif" font-size="14" font-weight="bold" lengthAdjust="spacing" textLength="38" x="1623" y="84.5234">value</text><text fill="#000000" font-family="sans-serif" font-size="14" lengthAdjust="spacing" textLength="92" x="1685" y="84.5234">ORDER12345</text><line style="stroke:#000000;stroke-width:1.0;" x1="1680" x2="1680" y1="68.9883" y2="89.4766"/><rect fill="none" height="40.9766" rx="5" ry="5" style="stroke:#000000;stroke-width:1.5;" width="649" x="1618" y="48.5"/><rect fill="#F1F1F1" height="20.4883" rx="5" ry="5" style="stroke:#F1F1F1;stroke-width:1.5;" width="22" x="1374.5" y="103"/><text fill="#000000" font-family="sans-serif" font-size="14" lengthAdjust="spacing" textLength="12" x="1379.5" y="118.5352">   </text><rect fill="none" height="20.4883" rx="5" ry="5" style="stroke:#000000;stroke-width:1.5;" width="22" x="1374.5" y="103"/><rect fill="#F1F1F1" height="20.4883" rx="5" ry="5" style="stroke:#F1F1F1;stroke-width:1.5;" width="415" x="1735" y="108"/><text fill="#000000" font-family="sans-serif" font-size="14" font-weight="bold" lengthAdjust="spacing" textLength="66" x="1740" y="123.5352">reference</text><text fill="#000000" font-family="sans-serif" font-size="14" lengthAdjust="spacing" textLength="329" x="1816" y="123.5352">ServiceRequest/Covid19ServiceRequestExample</text><line style="stroke:#000000;stroke-width:1.0;" x1="1811" x2="1811" y1="108" y2="128.4883"/><rect fill="none" height="20.4883" rx="5" ry="5" style="stroke:#000000;stroke-width:1.5;" width="415" x="1735" y="108"/><rect fill="#F1F1F1" height="20.4883" rx="5" ry="5" style="stroke:#F1F1F1;stroke-width:1.5;" width="80" x="1346.5" y="144"/><text fill="#000000" font-family="sans-serif" font-size="14" font-weight="bold" lengthAdjust="spacing" textLength="48" x="1351.5" y="159.5352">coding</text><text fill="#000000" font-family="sans-serif" font-size="14" lengthAdjust="spacing" textLength="12" x="1409.5" y="159.5352">   </text><line style="stroke:#000000;stroke-width:1.0;" x1="1404.5" x2="1404.5" y1="144" y2="164.4883"/><rect fill="none" height="20.4883" rx="5" ry="5" style="stroke:#000000;stroke-width:1.5;" width="80" x="1346.5" y="144"/><rect fill="#F1F1F1" height="20.4883" rx="5" ry="5" style="stroke:#F1F1F1;stroke-width:1.5;" width="22" x="1930.5" y="146"/><text fill="#000000" font-family="sans-serif" font-size="14" lengthAdjust="spacing" textLength="12" x="1935.5" y="161.5352">   </text><rect fill="none" height="20.4883" rx="5" ry="5" style="stroke:#000000;stroke-width:1.5;" width="22" x="1930.5" y="146"/><rect fill="#F1F1F1" height="40.9766" rx="5" ry="5" style="stroke:#F1F1F1;stroke-width:1.5;" width="230" x="2304" y="135.5"/><text fill="#000000" font-family="sans-serif" font-size="14" font-weight="bold" lengthAdjust="spacing" textLength="52" x="2309" y="151.0352">system</text><text fill="#000000" font-family="sans-serif" font-size="14" lengthAdjust="spacing" textLength="158" x="2371" y="151.0352">http://snomed.info/sct</text><line style="stroke:#000000;stroke-width:1.0;" x1="2366" x2="2366" y1="135.5" y2="155.9883"/><line style="stroke:#000000;stroke-width:1.0;" x1="2304" x2="2534" y1="155.9883" y2="155.9883"/><text fill="#000000" font-family="sans-serif" font-size="14" font-weight="bold" lengthAdjust="spacing" textLength="33" x="2309" y="171.5234">code</text><text fill="#000000" font-family="sans-serif" font-size="14" lengthAdjust="spacing" textLength="81" x="2371" y="171.5234">281264009</text><line style="stroke:#000000;stroke-width:1.0;" x1="2366" x2="2366" y1="155.9883" y2="176.4766"/><rect fill="none" height="40.9766" rx="5" ry="5" style="stroke:#000000;stroke-width:1.5;" width="230" x="2304" y="135.5"/><rect fill="#F1F1F1" height="20.4883" rx="5" ry="5" style="stroke:#F1F1F1;stroke-width:1.5;" width="134" x="1319.5" y="183"/><text fill="#000000" font-family="sans-serif" font-size="14" font-weight="bold" lengthAdjust="spacing" textLength="26" x="1324.5" y="198.5352">end</text><text fill="#000000" font-family="sans-serif" font-size="14" lengthAdjust="spacing" textLength="88" x="1360.5" y="198.5352">2022-07-30</text><line style="stroke:#000000;stroke-width:1.0;" x1="1355.5" x2="1355.5" y1="183" y2="203.4883"/><rect fill="none" height="20.4883" rx="5" ry="5" style="stroke:#000000;stroke-width:1.5;" width="134" x="1319.5" y="183"/><rect fill="#F1F1F1" height="20.4883" rx="5" ry="5" style="stroke:#F1F1F1;stroke-width:1.5;" width="389" x="1192" y="223"/><text fill="#000000" font-family="sans-serif" font-size="14" font-weight="bold" lengthAdjust="spacing" textLength="66" x="1197" y="238.5352">reference</text><text fill="#000000" font-family="sans-serif" font-size="14" lengthAdjust="spacing" textLength="303" x="1273" y="238.5352">Organization/Covid19OrganizationExample</text><line style="stroke:#000000;stroke-width:1.0;" x1="1268" x2="1268" y1="223" y2="243.4883"/><rect fill="none" height="20.4883" rx="5" ry="5" style="stroke:#000000;stroke-width:1.5;" width="389" x="1192" y="223"/><rect fill="#F1F1F1" height="20.4883" rx="5" ry="5" style="stroke:#F1F1F1;stroke-width:1.5;" width="389" x="1192" y="261"/><text fill="#000000" font-family="sans-serif" font-size="14" font-weight="bold" lengthAdjust="spacing" textLength="66" x="1197" y="276.5352">reference</text><text fill="#000000" font-family="sans-serif" font-size="14" lengthAdjust="spacing" textLength="303" x="1273" y="276.5352">Organization/Covid19OrganizationExample</text><line style="stroke:#000000;stroke-width:1.0;" x1="1268" x2="1268" y1="261" y2="281.4883"/><rect fill="none" height="20.4883" rx="5" ry="5" style="stroke:#000000;stroke-width:1.5;" width="389" x="1192" y="261"/><rect fill="#F1F1F1" height="40.9766" rx="5" ry="5" style="stroke:#F1F1F1;stroke-width:1.5;" width="379" x="765.5" y="283.5"/><text fill="#000000" font-family="sans-serif" font-size="14" font-weight="bold" lengthAdjust="spacing" textLength="55" x="770.5" y="299.0352">method</text><text fill="#000000" font-family="sans-serif" font-size="14" lengthAdjust="spacing" textLength="27" x="835.5" y="299.0352">PUT</text><line style="stroke:#000000;stroke-width:1.0;" x1="830.5" x2="830.5" y1="283.5" y2="303.9883"/><line style="stroke:#000000;stroke-width:1.0;" x1="765.5" x2="1144.5" y1="303.9883" y2="303.9883"/><text fill="#000000" font-family="sans-serif" font-size="14" font-weight="bold" lengthAdjust="spacing" textLength="20" x="770.5" y="319.5234">url</text><text fill="#000000" font-family="sans-serif" font-size="14" lengthAdjust="spacing" textLength="304" x="835.5" y="319.5234">Task/Covid19LabOrderCancellationExample</text><line style="stroke:#000000;stroke-width:1.0;" x1="830.5" x2="830.5" y1="303.9883" y2="324.4766"/><rect fill="none" height="40.9766" rx="5" ry="5" style="stroke:#000000;stroke-width:1.5;" width="379" x="765.5" y="283.5"/><path d="M1415,27 L1428,27 C1495.2422,27 1567.4281,26.3936 1635.8226,25.5378 " fill="none" style="stroke:#000000;stroke-width:1.0;stroke-dasharray:3.0,3.0;"/><path d="M1635.8626,28.6939 L1638.1897,25.5078 L1635.7826,22.3817 L1643.7129,25.4378 L1635.8626,28.6939 " fill="#000000" style="stroke:#000000;stroke-width:1.0;"/><ellipse cx="1415" cy="27" fill="#000000" rx="3" ry="3" style="stroke:#000000;stroke-width:1.0;"/><path d="M1143,70 L1156,70 C1174.0917,70 1174.7398,56.4217 1192,51 C1240.7181,35.697 1299.1878,30.0919 1339.115,28.0712 " fill="none" style="stroke:#000000;stroke-width:1.0;stroke-dasharray:3.0,3.0;"/><path d="M1339.2583,31.1632 L1341.434,27.9638 L1338.9718,24.9793 L1346.8449,27.7131 L1339.2583,31.1632 " fill="#000000" style="stroke:#000000;stroke-width:1.0;"/><ellipse cx="1143" cy="70" fill="#000000" rx="3" ry="3" style="stroke:#000000;stroke-width:1.0;"/><path d="M1386.1081,70.0016 L1399.1081,69.9782 C1429.9765,69.9226 1515.8928,69.7678 1610.5196,69.5973 " fill="none" style="stroke:#000000;stroke-width:1.0;stroke-dasharray:3.0,3.0;"/><path d="M1610.5251,72.6797 L1612.8314,69.5931 L1610.514,66.5148 L1618.2257,69.5834 L1610.5251,72.6797 " fill="#000000" style="stroke:#000000;stroke-width:1.0;"/><ellipse cx="1386.1081" cy="70.0016" fill="#000000" rx="3" ry="3" style="stroke:#000000;stroke-width:1.0;"/><path d="M1143,90 L1156,90 C1234.5811,90 1327.6984,78.2698 1366.9985,72.7763 " fill="none" style="stroke:#000000;stroke-width:1.0;stroke-dasharray:3.0,3.0;"/><path d="M1367.427,75.7942 L1369.262,72.455 L1366.5701,69.7584 L1374.5433,71.7052 L1367.427,75.7942 " fill="#000000" style="stroke:#000000;stroke-width:1.0;"/><ellipse cx="1143" cy="90" fill="#000000" rx="3" ry="3" style="stroke:#000000;stroke-width:1.0;"/><path d="M1386.1086,112.992 L1399.1081,113.1091 C1442.5496,113.5004 1595.0147,114.874 1727.3516,116.0662 " fill="none" style="stroke:#000000;stroke-width:1.0;stroke-dasharray:3.0,3.0;"/><path d="M1727.3232,119.2197 L1729.7167,116.0875 L1727.38,112.9128 L1735.2352,116.1373 L1727.3232,119.2197 " fill="#000000" style="stroke:#000000;stroke-width:1.0;"/><ellipse cx="1386.1086" cy="112.992" fill="#000000" rx="3" ry="3" style="stroke:#000000;stroke-width:1.0;"/><path d="M1143,111 L1156,111 C1234.3324,111 1327.6655,112.1743 1367.0163,112.7233 " fill="none" style="stroke:#000000;stroke-width:1.0;stroke-dasharray:3.0,3.0;"/><path d="M1366.9711,115.9122 L1369.408,112.7572 L1367.0615,109.5344 L1374.9885,112.8363 L1366.9711,115.9122 " fill="#000000" style="stroke:#000000;stroke-width:1.0;"/><ellipse cx="1143" cy="111" fill="#000000" rx="3" ry="3" style="stroke:#000000;stroke-width:1.0;"/><path d="M1942.2318,156 L1955.2318,156 C2002.432,156 2176.086,156 2296.8207,156 " fill="none" style="stroke:#000000;stroke-width:1.0;stroke-dasharray:3.0,3.0;"/><path d="M2296.8207,159.0049 L2299.0744,156 L2296.8207,152.9951 L2304.333,156 L2296.8207,159.0049 " fill="#000000" style="stroke:#000000;stroke-width:1.0;"/><ellipse cx="1942.2318" cy="156" fill="#000000" rx="3" ry="3" style="stroke:#000000;stroke-width:1.0;"/><path d="M1415,154 L1428,154 C1621.4033,154 1855.7378,155.4335 1923.0791,155.8733 " fill="none" style="stroke:#000000;stroke-width:1.0;stroke-dasharray:3.0,3.0;"/><path d="M1923.0588,158.9564 L1925.3915,155.8885 L1923.0995,152.7901 L1930.787,155.924 L1923.0588,158.9564 " fill="#000000" style="stroke:#000000;stroke-width:1.0;"/><ellipse cx="1415" cy="154" fill="#000000" rx="3" ry="3" style="stroke:#000000;stroke-width:1.0;"/><path d="M1143,152 L1156,152 C1219.5481,152 1292.969,152.7729 1339.4304,153.3577 " fill="none" style="stroke:#000000;stroke-width:1.0;stroke-dasharray:3.0,3.0;"/><path d="M1339.3921,156.3587 L1341.6811,153.3865 L1339.4687,150.3567 L1346.9329,153.4535 L1339.3921,156.3587 " fill="#000000" style="stroke:#000000;stroke-width:1.0;"/><ellipse cx="1143" cy="152" fill="#000000" rx="3" ry="3" style="stroke:#000000;stroke-width:1.0;"/><path d="M1143,193 L1156,193 C1208.0907,193 1266.8174,193 1311.8904,193 " fill="none" style="stroke:#000000;stroke-width:1.0;stroke-dasharray:3.0,3.0;"/><path d="M1311.8904,196.0726 L1314.1949,193 L1311.8904,189.9274 L1319.572,193 L1311.8904,196.0726 " fill="#000000" style="stroke:#000000;stroke-width:1.0;"/><ellipse cx="1143" cy="193" fill="#000000" rx="3" ry="3" style="stroke:#000000;stroke-width:1.0;"/><path d="M1143,234 L1156,234 C1165.3736,234 1174.9621,233.9916 1184.6473,233.9763 " fill="none" style="stroke:#000000;stroke-width:1.0;stroke-dasharray:3.0,3.0;"/><path d="M1184.6527,237.0906 L1186.983,233.9722 L1184.6418,230.862 L1192.433,233.9626 L1184.6527,237.0906 " fill="#000000" style="stroke:#000000;stroke-width:1.0;"/><ellipse cx="1143" cy="234" fill="#000000" rx="3" ry="3" style="stroke:#000000;stroke-width:1.0;"/><path d="M1143,255 L1156,255 C1195.8707,255 1239.5357,257.4224 1278.0058,260.382 " fill="none" style="stroke:#000000;stroke-width:1.0;stroke-dasharray:3.0,3.0;"/><path d="M1277.7664,263.4309 L1280.2925,260.5616 L1278.2453,257.3332 L1285.628,260.9806 L1277.7664,263.4309 " fill="#000000" style="stroke:#000000;stroke-width:1.0;"/><ellipse cx="1143" cy="255" fill="#000000" rx="3" ry="3" style="stroke:#000000;stroke-width:1.0;"/><path d="M706,212 L719,212 C728.4237,212 737.9749,211.4786 747.5614,210.5258 " fill="none" style="stroke:#000000;stroke-width:1.0;stroke-dasharray:3.0,3.0;"/><path d="M747.9034,213.6034 L749.8696,210.2694 L747.2195,207.4483 L755.2554,209.671 L747.9034,213.6034 " fill="#000000" style="stroke:#000000;stroke-width:1.0;"/><ellipse cx="706" cy="212" fill="#000000" rx="3" ry="3" style="stroke:#000000;stroke-width:1.0;"/><path d="M706,233 L719,233 C743.2497,233 733.716,262.3794 755,274 C759.2365,276.3131 763.5951,278.464 768.0503,280.4636 " fill="none" style="stroke:#000000;stroke-width:1.0;stroke-dasharray:3.0,3.0;"/><path d="M766.8426,283.2944 L770.1733,281.3694 L769.258,277.6329 L775.1271,283.4828 L766.8426,283.2944 " fill="#000000" style="stroke:#000000;stroke-width:1.0;"/><ellipse cx="706" cy="233" fill="#000000" rx="3" ry="3" style="stroke:#000000;stroke-width:1.0;"/><path d="M283.7571,213 L296.7571,213 C303.9706,213 314.0052,213 325.8743,213 " fill="none" style="stroke:#000000;stroke-width:1.0;stroke-dasharray:3.0,3.0;"/><path d="M325.8743,216.0474 L328.1598,213 L325.8743,209.9526 L333.4927,213 L325.8743,216.0474 " fill="#000000" style="stroke:#000000;stroke-width:1.0;"/><ellipse cx="283.7571" cy="213" fill="#000000" rx="3" ry="3" style="stroke:#000000;stroke-width:1.0;"/><path d="M223,213 L236,213 C245.374,213 255.7885,213 264.4714,213 " fill="none" style="stroke:#000000;stroke-width:1.0;stroke-dasharray:3.0,3.0;"/><path d="M264.4714,216.0815 L266.7825,213 L264.4714,209.9185 L272.1751,213 L264.4714,216.0815 " fill="#000000" style="stroke:#000000;stroke-width:1.0;"/><ellipse cx="223" cy="213" fill="#000000" rx="3" ry="3" style="stroke:#000000;stroke-width:1.0;"/><!--MD5=[14da2f132f4817fe1dc24fe4e208c134]
@startjson lab-cancellation-bundle
{
  "resourceType" : "Bundle",
  "id" : "LabCancellation",
  "type" : "transaction",
  "entry" : [{
    "fullUrl" : "Task/Covid19LabOrderCancellationExample",
    "resource" : {
      "resourceType" : "Task",
      "id" : "Covid19LabOrderCancellationExample",
      "meta" : {
        "profile" : ["http://openhie.org/fhir/covid19-casereporting/StructureDefinition/covid19-lab-task"]
      },
     
      "identifier" : [{
        "system" : "http://openhie.org/fhir/covid19-casereporting/lab-integration/test-order-number",
        "value" : "ORDER12345"
      }],
      "basedOn" : [{
        "reference" : "ServiceRequest/Covid19ServiceRequestExample"
      }],
      "status" : "cancelled",
      "statusReason" : {
        "coding" : [{
          "system" : "http://snomed.info/sct",
          "code" : "281264009"
        }]
      },
      "intent" : "order",
      "executionPeriod" : {
        "end" : "2022-07-30"
      },
      "lastModified" : "2022-07-30",
      "requester" : {
        "reference" : "Organization/Covid19OrganizationExample"
      },
      "owner" : {
        "reference" : "Organization/Covid19OrganizationExample"
      }
    },
    "request" : {
      "method" : "PUT",
      "url" : "Task/Covid19LabOrderCancellationExample"
    }
  }]
}

@endjson

PlantUML version 1.2022.7(Mon Aug 22 19:01:30 SAST 2022)
(GPL source distribution)
Java Runtime: Java(TM) SE Runtime Environment
JVM: Java HotSpot(TM) 64-Bit Server VM
Default Encoding: UTF-8
Language: en
Country: GB
--></g></svg>