<?xml version="1.0" encoding="UTF-8" standalone="no"?><svg xmlns="http://www.w3.org/2000/svg" xmlns:xlink="http://www.w3.org/1999/xlink" contentStyleType="text/css" height="336px" preserveAspectRatio="none" style="width:2480px;height:336px;background:#FFFFFF;" version="1.1" viewBox="0 0 2480 336" width="2480px" zoomAndPan="magnify"><defs/><g><rect fill="#F1F1F1" height="81.9531" rx="5" ry="5" style="stroke:#F1F1F1;stroke-width:1.5;" width="203" x="10" y="141"/><text fill="#000000" font-family="sans-serif" font-size="14" font-weight="bold" lengthAdjust="spacing" textLength="96" x="15" y="156.5352">resourceType</text><text fill="#000000" font-family="sans-serif" font-size="14" lengthAdjust="spacing" textLength="47" x="121" y="156.5352">Bundle</text><line style="stroke:#000000;stroke-width:1.0;" x1="116" x2="116" y1="141" y2="161.4883"/><line style="stroke:#000000;stroke-width:1.0;" x1="10" x2="213" y1="161.4883" y2="161.4883"/><text fill="#000000" font-family="sans-serif" font-size="14" font-weight="bold" lengthAdjust="spacing" textLength="14" x="15" y="177.0234">id</text><text fill="#000000" font-family="sans-serif" font-size="14" lengthAdjust="spacing" textLength="87" x="121" y="177.0234">LabRejection</text><line style="stroke:#000000;stroke-width:1.0;" x1="116" x2="116" y1="161.4883" y2="181.9766"/><line style="stroke:#000000;stroke-width:1.0;" x1="10" x2="213" y1="181.9766" y2="181.9766"/><text fill="#000000" font-family="sans-serif" font-size="14" font-weight="bold" lengthAdjust="spacing" textLength="31" x="15" y="197.5117">type</text><text fill="#000000" font-family="sans-serif" font-size="14" lengthAdjust="spacing" textLength="77" x="121" y="197.5117">transaction</text><line style="stroke:#000000;stroke-width:1.0;" x1="116" x2="116" y1="181.9766" y2="202.4648"/><line style="stroke:#000000;stroke-width:1.0;" x1="10" x2="213" y1="202.4648" y2="202.4648"/><text fill="#000000" font-family="sans-serif" font-size="14" font-weight="bold" lengthAdjust="spacing" textLength="37" x="15" y="218">entry</text><text fill="#000000" font-family="sans-serif" font-size="14" lengthAdjust="spacing" textLength="12" x="121" y="218">   </text><line style="stroke:#000000;stroke-width:1.0;" x1="116" x2="116" y1="202.4648" y2="222.9531"/><rect fill="none" height="81.9531" rx="5" ry="5" style="stroke:#000000;stroke-width:1.5;" width="203" x="10" y="141"/><rect fill="#F1F1F1" height="20.4883" rx="5" ry="5" style="stroke:#F1F1F1;stroke-width:1.5;" width="22" x="250" y="203"/><text fill="#000000" font-family="sans-serif" font-size="14" lengthAdjust="spacing" textLength="12" x="255" y="218.5352">   </text><rect fill="none" height="20.4883" rx="5" ry="5" style="stroke:#000000;stroke-width:1.5;" width="22" x="250" y="203"/><rect fill="#F1F1F1" height="61.4648" rx="5" ry="5" style="stroke:#F1F1F1;stroke-width:1.5;" width="363" x="311" y="182.5"/><text fill="#000000" font-family="sans-serif" font-size="14" font-weight="bold" lengthAdjust="spacing" textLength="46" x="316" y="198.0352">fullUrl</text><text fill="#000000" font-family="sans-serif" font-size="14" lengthAdjust="spacing" textLength="282" x="387" y="198.0352">Task/Covid19LabOrderRejectionExample</text><line style="stroke:#000000;stroke-width:1.0;" x1="382" x2="382" y1="182.5" y2="202.9883"/><line style="stroke:#000000;stroke-width:1.0;" x1="311" x2="674" y1="202.9883" y2="202.9883"/><text fill="#000000" font-family="sans-serif" font-size="14" font-weight="bold" lengthAdjust="spacing" textLength="61" x="316" y="218.5234">resource</text><text fill="#000000" font-family="sans-serif" font-size="14" lengthAdjust="spacing" textLength="12" x="387" y="218.5234">   </text><line style="stroke:#000000;stroke-width:1.0;" x1="382" x2="382" y1="202.9883" y2="223.4766"/><line style="stroke:#000000;stroke-width:1.0;" x1="311" x2="674" y1="223.4766" y2="223.4766"/><text fill="#000000" font-family="sans-serif" font-size="14" font-weight="bold" lengthAdjust="spacing" textLength="54" x="316" y="239.0117">request</text><text fill="#000000" font-family="sans-serif" font-size="14" lengthAdjust="spacing" textLength="12" x="387" y="239.0117">   </text><line style="stroke:#000000;stroke-width:1.0;" x1="382" x2="382" y1="223.4766" y2="243.9648"/><rect fill="none" height="61.4648" rx="5" ry="5" style="stroke:#000000;stroke-width:1.5;" width="363" x="311" y="182.5"/><rect fill="#F1F1F1" height="245.8594" rx="5" ry="5" style="stroke:#F1F1F1;stroke-width:1.5;" width="378" x="711" y="19"/><text fill="#000000" font-family="sans-serif" font-size="14" font-weight="bold" lengthAdjust="spacing" textLength="96" x="716" y="34.5352">resourceType</text><text fill="#000000" font-family="sans-serif" font-size="14" lengthAdjust="spacing" textLength="32" x="841" y="34.5352">Task</text><line style="stroke:#000000;stroke-width:1.0;" x1="836" x2="836" y1="19" y2="39.4883"/><line style="stroke:#000000;stroke-width:1.0;" x1="711" x2="1089" y1="39.4883" y2="39.4883"/><text fill="#000000" font-family="sans-serif" font-size="14" font-weight="bold" lengthAdjust="spacing" textLength="14" x="716" y="55.0234">id</text><text fill="#000000" font-family="sans-serif" font-size="14" lengthAdjust="spacing" textLength="243" x="841" y="55.0234">Covid19LabOrderRejectionExample</text><line style="stroke:#000000;stroke-width:1.0;" x1="836" x2="836" y1="39.4883" y2="59.9766"/><line style="stroke:#000000;stroke-width:1.0;" x1="711" x2="1089" y1="59.9766" y2="59.9766"/><text fill="#000000" font-family="sans-serif" font-size="14" font-weight="bold" lengthAdjust="spacing" textLength="36" x="716" y="75.5117">meta</text><text fill="#000000" font-family="sans-serif" font-size="14" lengthAdjust="spacing" textLength="12" x="841" y="75.5117">   </text><line style="stroke:#000000;stroke-width:1.0;" x1="836" x2="836" y1="59.9766" y2="80.4648"/><line style="stroke:#000000;stroke-width:1.0;" x1="711" x2="1089" y1="80.4648" y2="80.4648"/><text fill="#000000" font-family="sans-serif" font-size="14" font-weight="bold" lengthAdjust="spacing" textLength="67" x="716" y="96">identifier</text><text fill="#000000" font-family="sans-serif" font-size="14" lengthAdjust="spacing" textLength="12" x="841" y="96">   </text><line style="stroke:#000000;stroke-width:1.0;" x1="836" x2="836" y1="80.4648" y2="100.9531"/><line style="stroke:#000000;stroke-width:1.0;" x1="711" x2="1089" y1="100.9531" y2="100.9531"/><text fill="#000000" font-family="sans-serif" font-size="14" font-weight="bold" lengthAdjust="spacing" textLength="63" x="716" y="116.4883">basedOn</text><text fill="#000000" font-family="sans-serif" font-size="14" lengthAdjust="spacing" textLength="12" x="841" y="116.4883">   </text><line style="stroke:#000000;stroke-width:1.0;" x1="836" x2="836" y1="100.9531" y2="121.4414"/><line style="stroke:#000000;stroke-width:1.0;" x1="711" x2="1089" y1="121.4414" y2="121.4414"/><text fill="#000000" font-family="sans-serif" font-size="14" font-weight="bold" lengthAdjust="spacing" textLength="45" x="716" y="136.9766">status</text><text fill="#000000" font-family="sans-serif" font-size="14" lengthAdjust="spacing" textLength="55" x="841" y="136.9766">rejected</text><line style="stroke:#000000;stroke-width:1.0;" x1="836" x2="836" y1="121.4414" y2="141.9297"/><line style="stroke:#000000;stroke-width:1.0;" x1="711" x2="1089" y1="141.9297" y2="141.9297"/><text fill="#000000" font-family="sans-serif" font-size="14" font-weight="bold" lengthAdjust="spacing" textLength="97" x="716" y="157.4648">statusReason</text><text fill="#000000" font-family="sans-serif" font-size="14" lengthAdjust="spacing" textLength="12" x="841" y="157.4648">   </text><line style="stroke:#000000;stroke-width:1.0;" x1="836" x2="836" y1="141.9297" y2="162.418"/><line style="stroke:#000000;stroke-width:1.0;" x1="711" x2="1089" y1="162.418" y2="162.418"/><text fill="#000000" font-family="sans-serif" font-size="14" font-weight="bold" lengthAdjust="spacing" textLength="43" x="716" y="177.9531">intent</text><text fill="#000000" font-family="sans-serif" font-size="14" lengthAdjust="spacing" textLength="38" x="841" y="177.9531">order</text><line style="stroke:#000000;stroke-width:1.0;" x1="836" x2="836" y1="162.418" y2="182.9063"/><line style="stroke:#000000;stroke-width:1.0;" x1="711" x2="1089" y1="182.9063" y2="182.9063"/><text fill="#000000" font-family="sans-serif" font-size="14" font-weight="bold" lengthAdjust="spacing" textLength="115" x="716" y="198.4414">executionPeriod</text><text fill="#000000" font-family="sans-serif" font-size="14" lengthAdjust="spacing" textLength="12" x="841" y="198.4414">   </text><line style="stroke:#000000;stroke-width:1.0;" x1="836" x2="836" y1="182.9063" y2="203.3945"/><line style="stroke:#000000;stroke-width:1.0;" x1="711" x2="1089" y1="203.3945" y2="203.3945"/><text fill="#000000" font-family="sans-serif" font-size="14" font-weight="bold" lengthAdjust="spacing" textLength="91" x="716" y="218.9297">lastModified</text><text fill="#000000" font-family="sans-serif" font-size="14" lengthAdjust="spacing" textLength="88" x="841" y="218.9297">2022-07-30</text><line style="stroke:#000000;stroke-width:1.0;" x1="836" x2="836" y1="203.3945" y2="223.8828"/><line style="stroke:#000000;stroke-width:1.0;" x1="711" x2="1089" y1="223.8828" y2="223.8828"/><text fill="#000000" font-family="sans-serif" font-size="14" font-weight="bold" lengthAdjust="spacing" textLength="68" x="716" y="239.418">requester</text><text fill="#000000" font-family="sans-serif" font-size="14" lengthAdjust="spacing" textLength="12" x="841" y="239.418">   </text><line style="stroke:#000000;stroke-width:1.0;" x1="836" x2="836" y1="223.8828" y2="244.3711"/><line style="stroke:#000000;stroke-width:1.0;" x1="711" x2="1089" y1="244.3711" y2="244.3711"/><text fill="#000000" font-family="sans-serif" font-size="14" font-weight="bold" lengthAdjust="spacing" textLength="44" x="716" y="259.9063">owner</text><text fill="#000000" font-family="sans-serif" font-size="14" lengthAdjust="spacing" textLength="12" x="841" y="259.9063">   </text><line style="stroke:#000000;stroke-width:1.0;" x1="836" x2="836" y1="244.3711" y2="264.8594"/><rect fill="none" height="245.8594" rx="5" ry="5" style="stroke:#000000;stroke-width:1.5;" width="378" x="711" y="19"/><rect fill="#F1F1F1" height="20.4883" rx="5" ry="5" style="stroke:#F1F1F1;stroke-width:1.5;" width="80" x="1280.5" y="17"/><text fill="#000000" font-family="sans-serif" font-size="14" font-weight="bold" lengthAdjust="spacing" textLength="48" x="1285.5" y="32.5352">profile</text><text fill="#000000" font-family="sans-serif" font-size="14" lengthAdjust="spacing" textLength="12" x="1343.5" y="32.5352">   </text><line style="stroke:#000000;stroke-width:1.0;" x1="1338.5" x2="1338.5" y1="17" y2="37.4883"/><rect fill="none" height="20.4883" rx="5" ry="5" style="stroke:#000000;stroke-width:1.5;" width="80" x="1280.5" y="17"/><rect fill="#F1F1F1" height="20.4883" rx="5" ry="5" style="stroke:#F1F1F1;stroke-width:1.5;" width="598" x="1577.5" y="10"/><text fill="#000000" font-family="sans-serif" font-size="14" lengthAdjust="spacing" textLength="588" x="1582.5" y="25.5352">http://openhie.org/fhir/covid19-casereporting/StructureDefinition/covid19-lab-task</text><rect fill="none" height="20.4883" rx="5" ry="5" style="stroke:#000000;stroke-width:1.5;" width="598" x="1577.5" y="10"/><rect fill="#F1F1F1" height="20.4883" rx="5" ry="5" style="stroke:#F1F1F1;stroke-width:1.5;" width="22" x="1308.5" y="60"/><text fill="#000000" font-family="sans-serif" font-size="14" lengthAdjust="spacing" textLength="12" x="1313.5" y="75.5352">   </text><rect fill="none" height="20.4883" rx="5" ry="5" style="stroke:#000000;stroke-width:1.5;" width="22" x="1308.5" y="60"/><rect fill="#F1F1F1" height="40.9766" rx="5" ry="5" style="stroke:#F1F1F1;stroke-width:1.5;" width="649" x="1552" y="48.5"/><text fill="#000000" font-family="sans-serif" font-size="14" font-weight="bold" lengthAdjust="spacing" textLength="52" x="1557" y="64.0352">system</text><text fill="#000000" font-family="sans-serif" font-size="14" lengthAdjust="spacing" textLength="577" x="1619" y="64.0352">http://openhie.org/fhir/covid19-casereporting/lab-integration/test-order-number</text><line style="stroke:#000000;stroke-width:1.0;" x1="1614" x2="1614" y1="48.5" y2="68.9883"/><line style="stroke:#000000;stroke-width:1.0;" x1="1552" x2="2201" y1="68.9883" y2="68.9883"/><text fill="#000000" font-family="sans-serif" font-size="14" font-weight="bold" lengthAdjust="spacing" textLength="38" x="1557" y="84.5234">value</text><text fill="#000000" font-family="sans-serif" font-size="14" lengthAdjust="spacing" textLength="92" x="1619" y="84.5234">ORDER12345</text><line style="stroke:#000000;stroke-width:1.0;" x1="1614" x2="1614" y1="68.9883" y2="89.4766"/><rect fill="none" height="40.9766" rx="5" ry="5" style="stroke:#000000;stroke-width:1.5;" width="649" x="1552" y="48.5"/><rect fill="#F1F1F1" height="20.4883" rx="5" ry="5" style="stroke:#F1F1F1;stroke-width:1.5;" width="22" x="1308.5" y="103"/><text fill="#000000" font-family="sans-serif" font-size="14" lengthAdjust="spacing" textLength="12" x="1313.5" y="118.5352">   </text><rect fill="none" height="20.4883" rx="5" ry="5" style="stroke:#000000;stroke-width:1.5;" width="22" x="1308.5" y="103"/><rect fill="#F1F1F1" height="20.4883" rx="5" ry="5" style="stroke:#F1F1F1;stroke-width:1.5;" width="415" x="1669" y="108"/><text fill="#000000" font-family="sans-serif" font-size="14" font-weight="bold" lengthAdjust="spacing" textLength="66" x="1674" y="123.5352">reference</text><text fill="#000000" font-family="sans-serif" font-size="14" lengthAdjust="spacing" textLength="329" x="1750" y="123.5352">ServiceRequest/Covid19ServiceRequestExample</text><line style="stroke:#000000;stroke-width:1.0;" x1="1745" x2="1745" y1="108" y2="128.4883"/><rect fill="none" height="20.4883" rx="5" ry="5" style="stroke:#000000;stroke-width:1.5;" width="415" x="1669" y="108"/><rect fill="#F1F1F1" height="20.4883" rx="5" ry="5" style="stroke:#F1F1F1;stroke-width:1.5;" width="80" x="1280.5" y="144"/><text fill="#000000" font-family="sans-serif" font-size="14" font-weight="bold" lengthAdjust="spacing" textLength="48" x="1285.5" y="159.5352">coding</text><text fill="#000000" font-family="sans-serif" font-size="14" lengthAdjust="spacing" textLength="12" x="1343.5" y="159.5352">   </text><line style="stroke:#000000;stroke-width:1.0;" x1="1338.5" x2="1338.5" y1="144" y2="164.4883"/><rect fill="none" height="20.4883" rx="5" ry="5" style="stroke:#000000;stroke-width:1.5;" width="80" x="1280.5" y="144"/><rect fill="#F1F1F1" height="20.4883" rx="5" ry="5" style="stroke:#F1F1F1;stroke-width:1.5;" width="22" x="1864.5" y="146"/><text fill="#000000" font-family="sans-serif" font-size="14" lengthAdjust="spacing" textLength="12" x="1869.5" y="161.5352">   </text><rect fill="none" height="20.4883" rx="5" ry="5" style="stroke:#000000;stroke-width:1.5;" width="22" x="1864.5" y="146"/><rect fill="#F1F1F1" height="40.9766" rx="5" ry="5" style="stroke:#F1F1F1;stroke-width:1.5;" width="230" x="2238" y="135.5"/><text fill="#000000" font-family="sans-serif" font-size="14" font-weight="bold" lengthAdjust="spacing" textLength="52" x="2243" y="151.0352">system</text><text fill="#000000" font-family="sans-serif" font-size="14" lengthAdjust="spacing" textLength="158" x="2305" y="151.0352">http://snomed.info/sct</text><line style="stroke:#000000;stroke-width:1.0;" x1="2300" x2="2300" y1="135.5" y2="155.9883"/><line style="stroke:#000000;stroke-width:1.0;" x1="2238" x2="2468" y1="155.9883" y2="155.9883"/><text fill="#000000" font-family="sans-serif" font-size="14" font-weight="bold" lengthAdjust="spacing" textLength="33" x="2243" y="171.5234">code</text><text fill="#000000" font-family="sans-serif" font-size="14" lengthAdjust="spacing" textLength="81" x="2305" y="171.5234">135839007</text><line style="stroke:#000000;stroke-width:1.0;" x1="2300" x2="2300" y1="155.9883" y2="176.4766"/><rect fill="none" height="40.9766" rx="5" ry="5" style="stroke:#000000;stroke-width:1.5;" width="230" x="2238" y="135.5"/><rect fill="#F1F1F1" height="20.4883" rx="5" ry="5" style="stroke:#F1F1F1;stroke-width:1.5;" width="134" x="1253.5" y="183"/><text fill="#000000" font-family="sans-serif" font-size="14" font-weight="bold" lengthAdjust="spacing" textLength="26" x="1258.5" y="198.5352">end</text><text fill="#000000" font-family="sans-serif" font-size="14" lengthAdjust="spacing" textLength="88" x="1294.5" y="198.5352">2022-07-30</text><line style="stroke:#000000;stroke-width:1.0;" x1="1289.5" x2="1289.5" y1="183" y2="203.4883"/><rect fill="none" height="20.4883" rx="5" ry="5" style="stroke:#000000;stroke-width:1.5;" width="134" x="1253.5" y="183"/><rect fill="#F1F1F1" height="20.4883" rx="5" ry="5" style="stroke:#F1F1F1;stroke-width:1.5;" width="389" x="1126" y="223"/><text fill="#000000" font-family="sans-serif" font-size="14" font-weight="bold" lengthAdjust="spacing" textLength="66" x="1131" y="238.5352">reference</text><text fill="#000000" font-family="sans-serif" font-size="14" lengthAdjust="spacing" textLength="303" x="1207" y="238.5352">Organization/Covid19OrganizationExample</text><line style="stroke:#000000;stroke-width:1.0;" x1="1202" x2="1202" y1="223" y2="243.4883"/><rect fill="none" height="20.4883" rx="5" ry="5" style="stroke:#000000;stroke-width:1.5;" width="389" x="1126" y="223"/><rect fill="#F1F1F1" height="20.4883" rx="5" ry="5" style="stroke:#F1F1F1;stroke-width:1.5;" width="389" x="1126" y="261"/><text fill="#000000" font-family="sans-serif" font-size="14" font-weight="bold" lengthAdjust="spacing" textLength="66" x="1131" y="276.5352">reference</text><text fill="#000000" font-family="sans-serif" font-size="14" lengthAdjust="spacing" textLength="303" x="1207" y="276.5352">Organization/Covid19OrganizationExample</text><line style="stroke:#000000;stroke-width:1.0;" x1="1202" x2="1202" y1="261" y2="281.4883"/><rect fill="none" height="20.4883" rx="5" ry="5" style="stroke:#000000;stroke-width:1.5;" width="389" x="1126" y="261"/><rect fill="#F1F1F1" height="40.9766" rx="5" ry="5" style="stroke:#F1F1F1;stroke-width:1.5;" width="357" x="721.5" y="283.5"/><text fill="#000000" font-family="sans-serif" font-size="14" font-weight="bold" lengthAdjust="spacing" textLength="55" x="726.5" y="299.0352">method</text><text fill="#000000" font-family="sans-serif" font-size="14" lengthAdjust="spacing" textLength="27" x="791.5" y="299.0352">PUT</text><line style="stroke:#000000;stroke-width:1.0;" x1="786.5" x2="786.5" y1="283.5" y2="303.9883"/><line style="stroke:#000000;stroke-width:1.0;" x1="721.5" x2="1078.5" y1="303.9883" y2="303.9883"/><text fill="#000000" font-family="sans-serif" font-size="14" font-weight="bold" lengthAdjust="spacing" textLength="20" x="726.5" y="319.5234">url</text><text fill="#000000" font-family="sans-serif" font-size="14" lengthAdjust="spacing" textLength="282" x="791.5" y="319.5234">Task/Covid19LabOrderRejectionExample</text><line style="stroke:#000000;stroke-width:1.0;" x1="786.5" x2="786.5" y1="303.9883" y2="324.4766"/><rect fill="none" height="40.9766" rx="5" ry="5" style="stroke:#000000;stroke-width:1.5;" width="357" x="721.5" y="283.5"/><path d="M1349,27 L1362,27 C1429.2422,27 1501.4281,26.3936 1569.8226,25.5378 " fill="none" style="stroke:#000000;stroke-width:1.0;stroke-dasharray:3.0,3.0;"/><path d="M1569.8626,28.6939 L1572.1897,25.5078 L1569.7826,22.3817 L1577.7129,25.4378 L1569.8626,28.6939 " fill="#000000" style="stroke:#000000;stroke-width:1.0;"/><ellipse cx="1349" cy="27" fill="#000000" rx="3" ry="3" style="stroke:#000000;stroke-width:1.0;"/><path d="M1077,70 L1090,70 C1108.0917,70 1108.7398,56.4217 1126,51 C1174.7181,35.697 1233.1878,30.0919 1273.115,28.0712 " fill="none" style="stroke:#000000;stroke-width:1.0;stroke-dasharray:3.0,3.0;"/><path d="M1273.2583,31.1632 L1275.434,27.9638 L1272.9718,24.9793 L1280.8449,27.7131 L1273.2583,31.1632 " fill="#000000" style="stroke:#000000;stroke-width:1.0;"/><ellipse cx="1077" cy="70" fill="#000000" rx="3" ry="3" style="stroke:#000000;stroke-width:1.0;"/><path d="M1320.1081,70.0016 L1333.1081,69.9782 C1363.9765,69.9226 1449.8928,69.7678 1544.5196,69.5973 " fill="none" style="stroke:#000000;stroke-width:1.0;stroke-dasharray:3.0,3.0;"/><path d="M1544.5251,72.6797 L1546.8314,69.5931 L1544.514,66.5148 L1552.2257,69.5834 L1544.5251,72.6797 " fill="#000000" style="stroke:#000000;stroke-width:1.0;"/><ellipse cx="1320.1081" cy="70.0016" fill="#000000" rx="3" ry="3" style="stroke:#000000;stroke-width:1.0;"/><path d="M1077,90 L1090,90 C1168.5811,90 1261.6984,78.2698 1300.9985,72.7763 " fill="none" style="stroke:#000000;stroke-width:1.0;stroke-dasharray:3.0,3.0;"/><path d="M1301.427,75.7942 L1303.262,72.455 L1300.5701,69.7584 L1308.5433,71.7052 L1301.427,75.7942 " fill="#000000" style="stroke:#000000;stroke-width:1.0;"/><ellipse cx="1077" cy="90" fill="#000000" rx="3" ry="3" style="stroke:#000000;stroke-width:1.0;"/><path d="M1320.1086,112.992 L1333.1081,113.1091 C1376.5496,113.5004 1529.0147,114.874 1661.3516,116.0662 " fill="none" style="stroke:#000000;stroke-width:1.0;stroke-dasharray:3.0,3.0;"/><path d="M1661.3232,119.2197 L1663.7167,116.0875 L1661.38,112.9128 L1669.2352,116.1373 L1661.3232,119.2197 " fill="#000000" style="stroke:#000000;stroke-width:1.0;"/><ellipse cx="1320.1086" cy="112.992" fill="#000000" rx="3" ry="3" style="stroke:#000000;stroke-width:1.0;"/><path d="M1077,111 L1090,111 C1168.3324,111 1261.6655,112.1743 1301.0163,112.7233 " fill="none" style="stroke:#000000;stroke-width:1.0;stroke-dasharray:3.0,3.0;"/><path d="M1300.9711,115.9122 L1303.408,112.7572 L1301.0615,109.5344 L1308.9885,112.8363 L1300.9711,115.9122 " fill="#000000" style="stroke:#000000;stroke-width:1.0;"/><ellipse cx="1077" cy="111" fill="#000000" rx="3" ry="3" style="stroke:#000000;stroke-width:1.0;"/><path d="M1876.2318,156 L1889.2318,156 C1936.432,156 2110.086,156 2230.8207,156 " fill="none" style="stroke:#000000;stroke-width:1.0;stroke-dasharray:3.0,3.0;"/><path d="M2230.8207,159.0049 L2233.0744,156 L2230.8207,152.9951 L2238.333,156 L2230.8207,159.0049 " fill="#000000" style="stroke:#000000;stroke-width:1.0;"/><ellipse cx="1876.2318" cy="156" fill="#000000" rx="3" ry="3" style="stroke:#000000;stroke-width:1.0;"/><path d="M1349,154 L1362,154 C1555.4033,154 1789.7378,155.4335 1857.0791,155.8733 " fill="none" style="stroke:#000000;stroke-width:1.0;stroke-dasharray:3.0,3.0;"/><path d="M1857.0588,158.9564 L1859.3915,155.8885 L1857.0995,152.7901 L1864.787,155.924 L1857.0588,158.9564 " fill="#000000" style="stroke:#000000;stroke-width:1.0;"/><ellipse cx="1349" cy="154" fill="#000000" rx="3" ry="3" style="stroke:#000000;stroke-width:1.0;"/><path d="M1077,152 L1090,152 C1153.5481,152 1226.969,152.7729 1273.4304,153.3577 " fill="none" style="stroke:#000000;stroke-width:1.0;stroke-dasharray:3.0,3.0;"/><path d="M1273.3921,156.3587 L1275.6811,153.3865 L1273.4687,150.3567 L1280.9329,153.4535 L1273.3921,156.3587 " fill="#000000" style="stroke:#000000;stroke-width:1.0;"/><ellipse cx="1077" cy="152" fill="#000000" rx="3" ry="3" style="stroke:#000000;stroke-width:1.0;"/><path d="M1077,193 L1090,193 C1142.0907,193 1200.8174,193 1245.8904,193 " fill="none" style="stroke:#000000;stroke-width:1.0;stroke-dasharray:3.0,3.0;"/><path d="M1245.8904,196.0726 L1248.1949,193 L1245.8904,189.9274 L1253.572,193 L1245.8904,196.0726 " fill="#000000" style="stroke:#000000;stroke-width:1.0;"/><ellipse cx="1077" cy="193" fill="#000000" rx="3" ry="3" style="stroke:#000000;stroke-width:1.0;"/><path d="M1077,234 L1090,234 C1099.3736,234 1108.9621,233.9916 1118.6473,233.9763 " fill="none" style="stroke:#000000;stroke-width:1.0;stroke-dasharray:3.0,3.0;"/><path d="M1118.6527,237.0906 L1120.983,233.9722 L1118.6418,230.862 L1126.433,233.9626 L1118.6527,237.0906 " fill="#000000" style="stroke:#000000;stroke-width:1.0;"/><ellipse cx="1077" cy="234" fill="#000000" rx="3" ry="3" style="stroke:#000000;stroke-width:1.0;"/><path d="M1077,255 L1090,255 C1129.8707,255 1173.5357,257.4224 1212.0058,260.382 " fill="none" style="stroke:#000000;stroke-width:1.0;stroke-dasharray:3.0,3.0;"/><path d="M1211.7664,263.4309 L1214.2925,260.5616 L1212.2453,257.3332 L1219.628,260.9806 L1211.7664,263.4309 " fill="#000000" style="stroke:#000000;stroke-width:1.0;"/><ellipse cx="1077" cy="255" fill="#000000" rx="3" ry="3" style="stroke:#000000;stroke-width:1.0;"/><path d="M662,212 L675,212 C684.4228,212 693.9713,211.431 703.5462,210.3957 " fill="none" style="stroke:#000000;stroke-width:1.0;stroke-dasharray:3.0,3.0;"/><path d="M703.9176,213.4688 L705.851,210.1172 L703.1749,207.3226 L711.2289,209.4673 L703.9176,213.4688 " fill="#000000" style="stroke:#000000;stroke-width:1.0;"/><ellipse cx="662" cy="212" fill="#000000" rx="3" ry="3" style="stroke:#000000;stroke-width:1.0;"/><path d="M662,233 L675,233 C699.2497,233 689.7659,262.2883 711,274 C715.1893,276.3106 719.5056,278.456 723.9212,280.4475 " fill="none" style="stroke:#000000;stroke-width:1.0;stroke-dasharray:3.0,3.0;"/><path d="M722.7195,283.2542 L726.0262,281.3488 L725.123,277.6408 L730.9379,283.4519 L722.7195,283.2542 " fill="#000000" style="stroke:#000000;stroke-width:1.0;"/><ellipse cx="662" cy="233" fill="#000000" rx="3" ry="3" style="stroke:#000000;stroke-width:1.0;"/><path d="M261.5158,213 L274.5158,213 C281.6953,213 291.7189,213 303.556,213 " fill="none" style="stroke:#000000;stroke-width:1.0;stroke-dasharray:3.0,3.0;"/><path d="M303.556,216.0381 L305.8346,213 L303.556,209.9619 L311.1513,213 L303.556,216.0381 " fill="#000000" style="stroke:#000000;stroke-width:1.0;"/><ellipse cx="261.5158" cy="213" fill="#000000" rx="3" ry="3" style="stroke:#000000;stroke-width:1.0;"/><path d="M201,213 L214,213 C223.374,213 233.7885,213 242.4714,213 " fill="none" style="stroke:#000000;stroke-width:1.0;stroke-dasharray:3.0,3.0;"/><path d="M242.4714,216.0815 L244.7825,213 L242.4714,209.9185 L250.1751,213 L242.4714,216.0815 " fill="#000000" style="stroke:#000000;stroke-width:1.0;"/><ellipse cx="201" cy="213" fill="#000000" rx="3" ry="3" style="stroke:#000000;stroke-width:1.0;"/><!--MD5=[4b15c7d152eded722ffd15ac4c82a0fd]
@startjson lab-rejection-bundle
{
  "resourceType" : "Bundle",
  "id" : "LabRejection",
  "type" : "transaction",
  "entry" : [{
    "fullUrl" : "Task/Covid19LabOrderRejectionExample",
    "resource" : {
      "resourceType" : "Task",
      "id" : "Covid19LabOrderRejectionExample",
      "meta" : {
        "profile" : ["http://openhie.org/fhir/covid19-casereporting/StructureDefinition/covid19-lab-task"]
      },
     
      "identifier" : [{
        "system" : "http://openhie.org/fhir/covid19-casereporting/lab-integration/test-order-number",
        "value" : "ORDER12345"
      }],
      "basedOn" : [{
        "reference" : "ServiceRequest/Covid19ServiceRequestExample"
      }],
      "status" : "rejected",
      "statusReason" : {
        "coding" : [{
          "system" : "http://snomed.info/sct",
          "code" : "135839007"
        }]
      },
      "intent" : "order",
      "executionPeriod" : {
        "end" : "2022-07-30"
      },
      "lastModified" : "2022-07-30",
      "requester" : {
        "reference" : "Organization/Covid19OrganizationExample"
      },
      "owner" : {
        "reference" : "Organization/Covid19OrganizationExample"
      }
    },
    "request" : {
      "method" : "PUT",
      "url" : "Task/Covid19LabOrderRejectionExample"
    }
  }]
}

@endjson

PlantUML version 1.2022.7(Mon Aug 22 19:01:30 SAST 2022)
(GPL source distribution)
Java Runtime: Java(TM) SE Runtime Environment
JVM: Java HotSpot(TM) 64-Bit Server VM
Default Encoding: UTF-8
Language: en
Country: GB
--></g></svg>