<?xml version="1.0" encoding="UTF-8" standalone="no"?><svg xmlns="http://www.w3.org/2000/svg" xmlns:xlink="http://www.w3.org/1999/xlink" contentStyleType="text/css" height="1243px" preserveAspectRatio="none" style="width:1592px;height:1243px;background:#FFFFFF;" version="1.1" viewBox="0 0 1592 1243" width="1592px" zoomAndPan="magnify"><defs/><g><!--MD5=[2caf110011a8ade4bad137ae4abd946e]
cluster EMR--><g id="cluster_EMR"><rect fill="none" height="635" rx="2.5" ry="2.5" style="stroke:#181818;stroke-width:1.0;" width="651" x="151" y="7"/><text fill="#000000" font-family="sans-serif" font-size="14" font-weight="bold" lengthAdjust="spacing" textLength="31" x="461" y="22.5352">EMR</text></g><!--MD5=[65c07aa696f0c0abf1b42f55bef1ceca]
cluster Laboratory--><g id="cluster_Laboratory"><rect fill="none" height="260" rx="2.5" ry="2.5" style="stroke:#181818;stroke-width:1.0;" width="1094.5" x="169.5" y="877"/><text fill="#000000" font-family="sans-serif" font-size="14" font-weight="bold" lengthAdjust="spacing" textLength="77" x="678.25" y="892.5352">Laboratory</text></g><!--MD5=[c4f146e7e0bb2ab052f683a5eaa91d46]
cluster cdr--><g id="cluster_cdr"><rect fill="none" height="128" rx="2.5" ry="2.5" style="stroke:#181818;stroke-width:1.0;" width="230" x="964" y="525"/><text fill="#000000" font-family="sans-serif" font-size="14" font-weight="bold" lengthAdjust="spacing" textLength="203" x="977.5" y="540.5352">Centralised Data Repository</text></g><!--MD5=[406dfc753155caba3382a0c02f353a1f]
cluster cr--><g id="cluster_cr"><rect fill="none" height="144" rx="2.5" ry="2.5" style="stroke:#181818;stroke-width:1.0;" width="315" x="921.5" y="693"/><text fill="#000000" font-family="sans-serif" font-size="14" font-weight="bold" lengthAdjust="spacing" textLength="108" x="1025" y="708.5352">Client Registry</text></g><!--MD5=[6ddf9795535009af07f6e79791270a0d]
cluster dm--><g id="cluster_dm"><rect fill="none" height="124" rx="2.5" ry="2.5" style="stroke:#181818;stroke-width:1.0;" width="209" x="1377" y="693"/><text fill="#000000" font-family="sans-serif" font-size="14" font-weight="bold" lengthAdjust="spacing" textLength="71" x="1446" y="708.5352">Data Mart</text></g><g id="elem_UC1"><ellipse cx="282.5403" cy="264.9081" fill="#F1F1F1" rx="72.5403" ry="16.9081" style="stroke:#181818;stroke-width:0.5;"/><text fill="#000000" font-family="sans-serif" font-size="14" lengthAdjust="spacing" textLength="100" x="232.0432" y="268.3341">Register Client</text></g><g id="elem_UC2"><ellipse cx="282.6987" cy="333.1397" fill="#F1F1F1" rx="68.6987" ry="16.1397" style="stroke:#181818;stroke-width:0.5;"/><text fill="#000000" font-family="sans-serif" font-size="14" lengthAdjust="spacing" textLength="90" x="235.171" y="337.0562">Assess Client</text></g><g id="elem_UC3"><ellipse cx="646.9096" cy="580.7819" fill="#F1F1F1" rx="129.4096" ry="28.2819" style="stroke:#181818;stroke-width:0.5;"/><text fill="#000000" font-family="sans-serif" font-size="14" lengthAdjust="spacing" textLength="227" x="533.4096" y="584.0729">Document Screening Information</text></g><g id="elem_UC4"><ellipse cx="647.1645" cy="497.2329" fill="#F1F1F1" rx="91.6645" ry="20.7329" style="stroke:#181818;stroke-width:0.5;"/><text fill="#000000" font-family="sans-serif" font-size="14" lengthAdjust="spacing" textLength="145" x="574.6645" y="500.5239">Document Symptoms</text></g><g id="elem_UC5"><ellipse cx="646.8563" cy="418.0713" fill="#F1F1F1" rx="103.3563" ry="23.0713" style="stroke:#181818;stroke-width:0.5;"/><text fill="#000000" font-family="sans-serif" font-size="14" lengthAdjust="spacing" textLength="171" x="561.3563" y="421.3623">Document Comorbidities</text></g><g id="elem_UC6"><ellipse cx="646.8755" cy="332.7751" fill="#F1F1F1" rx="121.8755" ry="26.7751" style="stroke:#181818;stroke-width:0.5;"/><text fill="#000000" font-family="sans-serif" font-size="14" lengthAdjust="spacing" textLength="211" x="541.3755" y="336.0661">Document Hospital Encounters</text></g><g id="elem_UC8"><ellipse cx="646.8988" cy="249.8798" fill="#F1F1F1" rx="89.8988" ry="20.3798" style="stroke:#181818;stroke-width:0.5;"/><text fill="#000000" font-family="sans-serif" font-size="14" lengthAdjust="spacing" textLength="141" x="576.3988" y="253.1708">Document Diagnosis</text></g><g id="elem_UC9"><ellipse cx="646.8286" cy="166.0657" fill="#F1F1F1" rx="130.8286" ry="28.5657" style="stroke:#181818;stroke-width:0.5;"/><text fill="#000000" font-family="sans-serif" font-size="14" lengthAdjust="spacing" textLength="230" x="531.8286" y="169.3567">Document Treatment Information</text></g><g id="elem_UC10"><ellipse cx="282.4756" cy="407.8951" fill="#F1F1F1" rx="107.4756" ry="23.8951" style="stroke:#181818;stroke-width:0.5;"/><text fill="#000000" font-family="sans-serif" font-size="14" lengthAdjust="spacing" textLength="180" x="192.4756" y="411.1861">Document Client Outcome</text></g><g id="elem_UC11"><ellipse cx="282.3148" cy="533.063" fill="#F1F1F1" rx="80.8148" ry="18.563" style="stroke:#181818;stroke-width:0.5;"/><text fill="#000000" font-family="sans-serif" font-size="14" lengthAdjust="spacing" textLength="120" x="222.3148" y="536.354">Submit Lab Order</text></g><g id="elem_UC12"><ellipse cx="647.1989" cy="75.8398" fill="#F1F1F1" rx="117.1989" ry="25.8398" style="stroke:#181818;stroke-width:0.5;"/><text fill="#000000" font-family="sans-serif" font-size="14" lengthAdjust="spacing" textLength="201" x="546.6989" y="79.1308">Document Vaccination Events</text></g><g id="elem_UC14"><ellipse cx="282.5911" cy="957.8182" fill="#F1F1F1" rx="82.0911" ry="18.8182" style="stroke:#181818;stroke-width:0.5;"/><text fill="#000000" font-family="sans-serif" font-size="14" lengthAdjust="spacing" textLength="123" x="221.0911" y="961.1092">Sample Collection</text></g><g id="elem_UC15"><ellipse cx="282.5197" cy="1032.2039" fill="#F1F1F1" rx="89.0197" ry="20.2039" style="stroke:#181818;stroke-width:0.5;"/><text fill="#000000" font-family="sans-serif" font-size="14" lengthAdjust="spacing" textLength="139" x="213.0197" y="1035.495">Process Lab Request</text></g><g id="elem_UC16"><ellipse cx="647.2221" cy="949.1444" fill="#F1F1F1" rx="91.2221" ry="20.6444" style="stroke:#181818;stroke-width:0.5;"/><text fill="#000000" font-family="sans-serif" font-size="14" lengthAdjust="spacing" textLength="144" x="575.2221" y="952.4354">Document Lab Result</text></g><g id="elem_UC17"><ellipse cx="646.8692" cy="1094.9738" fill="#F1F1F1" rx="77.8692" ry="17.9738" style="stroke:#181818;stroke-width:0.5;"/><text fill="#000000" font-family="sans-serif" font-size="14" lengthAdjust="spacing" textLength="113" x="590.3692" y="1098.2649">Reject Lab Order</text></g><g id="elem_UC18"><ellipse cx="646.9685" cy="1022.8937" fill="#F1F1F1" rx="79.9685" ry="18.3937" style="stroke:#181818;stroke-width:0.5;"/><text fill="#000000" font-family="sans-serif" font-size="14" lengthAdjust="spacing" textLength="118" x="587.9685" y="1026.1847">Cancel Lab Order</text></g><g id="elem_UC19"><ellipse cx="1078.9728" cy="1050.0946" fill="#F1F1F1" rx="160.9728" ry="34.5946" style="stroke:#181818;stroke-width:0.5;"/><text fill="#000000" font-family="sans-serif" font-size="14" lengthAdjust="spacing" textLength="293" x="932.4728" y="1053.3856">Document Reason For Not Performing Test</text></g><g id="elem_UC20"><ellipse cx="1078.7804" cy="589.0561" fill="#F1F1F1" rx="90.7804" ry="20.5561" style="stroke:#181818;stroke-width:0.5;"/><text fill="#000000" font-family="sans-serif" font-size="14" lengthAdjust="spacing" textLength="143" x="1007.2804" y="592.3471">Manage Clinical Data</text></g><g id="elem_UC21"><ellipse cx="1079.1719" cy="784.1344" fill="#F1F1F1" rx="133.6719" ry="29.1344" style="stroke:#181818;stroke-width:0.5;"/><text fill="#000000" font-family="sans-serif" font-size="14" lengthAdjust="spacing" textLength="236" x="961.1719" y="787.4254">Manage Master Patient Index (MPI)</text></g><g id="elem_UC22"><ellipse cx="1481.3912" cy="773.9782" fill="#F1F1F1" rx="80.3912" ry="18.4782" style="stroke:#181818;stroke-width:0.5;"/><text fill="#000000" font-family="sans-serif" font-size="14" lengthAdjust="spacing" textLength="119" x="1421.8912" y="777.2693">Generate Reports</text></g><!--MD5=[87d66015e0fe95d70bf3fa68103252e8]
entity nurse--><g id="elem_nurse"><ellipse cx="51" cy="303.5" fill="#F1F1F1" rx="8" ry="8" style="stroke:#181818;stroke-width:0.5;"/><path d="M51,311.5 L51,338.5 M38,319.5 L64,319.5 M51,338.5 L38,353.5 M51,338.5 L64,353.5 " fill="none" style="stroke:#181818;stroke-width:0.5;"/><text fill="#000000" font-family="sans-serif" font-size="14" lengthAdjust="spacing" textLength="40" x="31" y="368.5352">Nurse</text></g><!--MD5=[bed5f9a2aca8d4dfc4757558722d4a3e]
entity labAssistant--><g id="elem_labAssistant"><ellipse cx="51" cy="968.5" fill="#F1F1F1" rx="8" ry="8" style="stroke:#181818;stroke-width:0.5;"/><path d="M51,976.5 L51,1003.5 M38,984.5 L64,984.5 M51,1003.5 L38,1018.5 M51,1003.5 L64,1018.5 " fill="none" style="stroke:#181818;stroke-width:0.5;"/><text fill="#000000" font-family="sans-serif" font-size="14" lengthAdjust="spacing" textLength="90" x="6" y="1033.5352">Lab Assistant</text></g><!--MD5=[4806f71af226774e476198568b04cfbd]
entity iol--><g id="elem_iol"><ellipse cx="647" cy="674.5" fill="#F1F1F1" rx="8" ry="8" style="stroke:#181818;stroke-width:0.5;"/><path d="M647,682.5 L647,709.5 M634,690.5 L660,690.5 M647,709.5 L634,724.5 M647,709.5 L660,724.5 " fill="none" style="stroke:#181818;stroke-width:0.5;"/><text fill="#000000" font-family="sans-serif" font-size="14" lengthAdjust="spacing" textLength="145" x="574.5" y="739.5352">Interoperability Layer</text></g><!--MD5=[3bbd0f9bb50975ee3cb0a847e628e35f]
entity macthingAdmin--><g id="elem_macthingAdmin"><ellipse cx="647" cy="785.5" fill="#F1F1F1" rx="8" ry="8" style="stroke:#181818;stroke-width:0.5;"/><path d="M647,793.5 L647,820.5 M634,801.5 L660,801.5 M647,820.5 L634,835.5 M647,820.5 L660,835.5 " fill="none" style="stroke:#181818;stroke-width:0.5;"/><text fill="#000000" font-family="sans-serif" font-size="14" lengthAdjust="spacing" textLength="162" x="566" y="850.5352">Matching Administrator</text></g><!--MD5=[e4cba3338b0a4420f2b91f3e79e58e40]
entity caseReporter--><g id="elem_caseReporter"><ellipse cx="1079" cy="1169.5" fill="#F1F1F1" rx="8" ry="8" style="stroke:#181818;stroke-width:0.5;"/><path d="M1079,1177.5 L1079,1204.5 M1066,1185.5 L1092,1185.5 M1079,1204.5 L1066,1219.5 M1079,1204.5 L1092,1219.5 " fill="none" style="stroke:#181818;stroke-width:0.5;"/><text fill="#000000" font-family="sans-serif" font-size="14" lengthAdjust="spacing" textLength="97" x="1030.5" y="1234.5352">Case Reporter</text></g><!--MD5=[f17e6c89128ac7aec25bfd04da8c0308]
link nurse to UC1--><g id="link_nurse_UC1"><path d="M71.46,323.99 C88.07,316.54 112.74,306.09 135,299 C162.18,290.34 192.84,282.88 219.06,277.17 " fill="none" id="nurse-to-UC1" style="stroke:#181818;stroke-width:1.0;"/><polygon fill="#181818" points="223.8,276.15,214.1576,274.1438,218.9131,277.2074,215.8495,281.9629,223.8,276.15" style="stroke:#181818;stroke-width:1.0;"/></g><!--MD5=[5826e13423bb2507f5811bd6926f5554]
link nurse to UC2--><g id="link_nurse_UC2"><path d="M71.17,333 C100.81,333 159.34,333 207.14,333 " fill="none" id="nurse-to-UC2" style="stroke:#181818;stroke-width:1.0;"/><polygon fill="#181818" points="212,333,203,329,207,333,203,337,212,333" style="stroke:#181818;stroke-width:1.0;"/></g><!--MD5=[3a11357958aa0c02f2cc121c62d5f2e3]
link nurse to UC10--><g id="link_nurse_UC10"><path d="M71.25,341.28 C87.94,348.32 112.84,358.44 135,366 C157.76,373.76 182.82,381.31 205.68,387.81 " fill="none" id="nurse-to-UC10" style="stroke:#181818;stroke-width:1.0;"/><polygon fill="#181818" points="210.3,389.12,202.7229,382.8281,205.4876,387.7634,200.5523,390.528,210.3,389.12" style="stroke:#181818;stroke-width:1.0;"/></g><!--MD5=[ce4189e8b724cc8e8133b133b14fb0ff]
link nurse to UC11--><g id="link_nurse_UC11"><path d="M71.36,367.75 C86.39,392.54 109.01,425.5 135,449 C165.4,476.49 206.29,499.01 237.14,513.78 " fill="none" id="nurse-to-UC11" style="stroke:#181818;stroke-width:1.0;"/><polygon fill="#181818" points="241.41,515.8,234.9857,508.3349,236.8904,513.6614,231.5639,515.5662,241.41,515.8" style="stroke:#181818;stroke-width:1.0;"/></g><!--MD5=[819c6795238fe0678004be45f9272584]
link nurse to UC12--><g id="link_nurse_UC12"><path d="M71.49,301.04 C86.5,278.64 109.05,249.36 135,230 C253.44,141.63 422.63,103.6 533.37,87.48 " fill="none" id="nurse-to-UC12" style="stroke:#181818;stroke-width:1.0;"/><polygon fill="#181818" points="538.09,86.8,528.6115,84.1245,533.1411,87.5131,529.7525,92.0427,538.09,86.8" style="stroke:#181818;stroke-width:1.0;"/></g><!--MD5=[1a598bd93a2bfc6ab549df082e93867b]
reverse link UC2 to UC3--><g id="link_UC2_UC3"><path d="M349.25,342.45 C364.25,347.35 378.99,354.77 390,366 C423.68,400.35 391.73,431.08 420,470 C450.28,511.69 470.01,511.77 516,535 C532.99,543.58 551.96,551.27 570.05,557.79 " fill="none" id="UC2-backto-UC3" style="stroke:#181818;stroke-width:1.0;stroke-dasharray:7.0,7.0;"/><polygon fill="#181818" points="344.72,341.06,352.1647,347.508,349.5032,342.5164,354.4949,339.8549,344.72,341.06" style="stroke:#181818;stroke-width:1.0;"/><text fill="#000000" font-family="sans-serif" font-size="13" lengthAdjust="spacing" textLength="64" x="421" y="466.5684">«extends»</text></g><!--MD5=[752458990211fc8e4e0e18ec63c1ebcf]
reverse link UC2 to UC4--><g id="link_UC2_UC4"><path d="M343.15,344.65 C359.26,349.56 376.07,356.44 390,366 C407.74,378.18 403.65,390.02 420,404 C457.21,435.81 470.95,438.85 516,458 C537.9,467.31 562.76,475.34 584.83,481.66 " fill="none" id="UC2-backto-UC4" style="stroke:#181818;stroke-width:1.0;stroke-dasharray:7.0,7.0;"/><polygon fill="#181818" points="338.71,343.35,346.23,349.71,343.51,344.75,348.47,342.03,338.71,343.35" style="stroke:#181818;stroke-width:1.0;"/><text fill="#000000" font-family="sans-serif" font-size="13" lengthAdjust="spacing" textLength="64" x="421" y="400.5684">«extends»</text></g><!--MD5=[2703d3f9d28ab38b13b2399a6beb8d63]
reverse link UC2 to UC5--><g id="link_UC2_UC5"><path d="M337.98,345.77 C400.97,360.54 504.89,384.91 574.37,401.2 " fill="none" id="UC2-backto-UC5" style="stroke:#181818;stroke-width:1.0;stroke-dasharray:7.0,7.0;"/><polygon fill="#181818" points="333.49,344.72,341.3385,350.6699,338.3578,345.862,343.1657,342.8814,333.49,344.72" style="stroke:#181818;stroke-width:1.0;"/><text fill="#000000" font-family="sans-serif" font-size="13" lengthAdjust="spacing" textLength="64" x="421" y="362.5684">«extends»</text></g><!--MD5=[8e350c6f90ea3cbecbfe6f61c65c20c2]
reverse link UC2 to UC6--><g id="link_UC2_UC6"><path d="M357.63,333 C405.66,333 469.35,333 524.65,333 " fill="none" id="UC2-backto-UC6" style="stroke:#181818;stroke-width:1.0;stroke-dasharray:7.0,7.0;"/><polygon fill="#181818" points="352.77,333,361.77,337,357.77,333,361.77,329,352.77,333" style="stroke:#181818;stroke-width:1.0;"/><text fill="#000000" font-family="sans-serif" font-size="13" lengthAdjust="spacing" textLength="64" x="421" y="329.5684">«extends»</text></g><!--MD5=[00041e19171f7aaeffbbb948d4ccb349]
reverse link UC2 to UC12--><g id="link_UC2_UC12"><path d="M348.41,323.02 C363.67,317.98 378.74,310.4 390,299 C422.02,266.6 394.9,239.01 420,201 C450.76,154.41 467.38,147.43 516,120 C533.02,110.4 552.47,102.44 571.05,96.04 " fill="none" id="UC2-backto-UC12" style="stroke:#181818;stroke-width:1.0;stroke-dasharray:7.0,7.0;"/><polygon fill="#181818" points="343.79,324.45,353.5681,325.6284,348.5692,322.9806,351.217,317.9817,343.79,324.45" style="stroke:#181818;stroke-width:1.0;"/><text fill="#000000" font-family="sans-serif" font-size="13" lengthAdjust="spacing" textLength="64" x="421" y="134.5684">«extends»</text></g><!--MD5=[6067a0bc3d34b2cf9700ae546ddf548a]
reverse link UC2 to UC8--><g id="link_UC2_UC8"><path d="M338.97,320.3 C404.48,305.3 513.24,280.4 582.19,264.61 " fill="none" id="UC2-backto-UC8" style="stroke:#181818;stroke-width:1.0;stroke-dasharray:7.0,7.0;"/><polygon fill="#181818" points="334.24,321.38,343.9106,323.2455,339.111,320.2515,342.105,315.452,334.24,321.38" style="stroke:#181818;stroke-width:1.0;"/><text fill="#000000" font-family="sans-serif" font-size="13" lengthAdjust="spacing" textLength="64" x="421" y="286.5684">«extends»</text></g><!--MD5=[e76753585c8d9dc0dc47e0e21d57b216]
reverse link UC2 to UC9--><g id="link_UC2_UC9"><path d="M341.34,320.69 C357.89,315.58 375.38,308.54 390,299 C406.87,287.98 404.28,277.61 420,265 C458.02,234.5 471.54,231.97 516,212 C533.91,203.95 553.68,196.34 572.29,189.71 " fill="none" id="UC2-backto-UC9" style="stroke:#181818;stroke-width:1.0;stroke-dasharray:7.0,7.0;"/><polygon fill="#181818" points="336.75,322.06,346.5171,323.3265,341.5423,320.6337,344.2351,315.6589,336.75,322.06" style="stroke:#181818;stroke-width:1.0;"/><text fill="#000000" font-family="sans-serif" font-size="13" lengthAdjust="spacing" textLength="64" x="421" y="222.5684">«extends»</text></g><!--MD5=[34d381eedb8ccadbc0a8444545915146]
link labAssistant to UC14--><g id="link_labAssistant_UC14"><path d="M96.25,990.29 C128.39,984.69 172.57,976.99 209.72,970.51 " fill="none" id="labAssistant-to-UC14" style="stroke:#181818;stroke-width:1.0;"/><polygon fill="#181818" points="214.61,969.66,205.0577,967.2612,209.6839,970.5167,206.4285,975.1429,214.61,969.66" style="stroke:#181818;stroke-width:1.0;"/></g><!--MD5=[2310bbd90d52def0e36722a3f6e87ed6]
link labAssistant to UC15--><g id="link_labAssistant_UC15"><path d="M96.25,1004.56 C125.92,1008.95 165.87,1014.87 201.07,1020.08 " fill="none" id="labAssistant-to-UC15" style="stroke:#181818;stroke-width:1.0;"/><polygon fill="#181818" points="205.63,1020.76,197.3095,1015.4903,200.6834,1020.0309,196.1429,1023.4048,205.63,1020.76" style="stroke:#181818;stroke-width:1.0;"/></g><!--MD5=[53c18909305255e08ec985690ddfe6d6]
reverse link UC15 to UC16--><g id="link_UC15_UC16"><path d="M352.52,1016.2 C418.61,1001.07 517.52,978.42 581.91,963.67 " fill="none" id="UC15-backto-UC16" style="stroke:#181818;stroke-width:1.0;stroke-dasharray:7.0,7.0;"/><polygon fill="#181818" points="347.7,1017.3,357.3653,1019.1925,352.5741,1016.1851,355.5815,1011.3939,347.7,1017.3" style="stroke:#181818;stroke-width:1.0;"/><text fill="#000000" font-family="sans-serif" font-size="13" lengthAdjust="spacing" textLength="64" x="421" y="985.5684">«extends»</text></g><!--MD5=[e12d9a59f64df477d6c60ba2d48c57f2]
reverse link UC15 to UC17--><g id="link_UC15_UC17"><path d="M360.17,1045.32 C426.7,1056.89 521.81,1073.42 583.73,1084.18 " fill="none" id="UC15-backto-UC17" style="stroke:#181818;stroke-width:1.0;stroke-dasharray:7.0,7.0;"/><polygon fill="#181818" points="355.31,1044.48,363.4915,1049.9629,360.2361,1045.3367,364.8623,1042.0812,355.31,1044.48" style="stroke:#181818;stroke-width:1.0;"/><text fill="#000000" font-family="sans-serif" font-size="13" lengthAdjust="spacing" textLength="64" x="421" y="1053.5684">«extends»</text></g><!--MD5=[687ef2a769cc8fbf8bf7f91ba510f6f9]
reverse link UC15 to UC18--><g id="link_UC15_UC18"><path d="M377.62,1029.66 C436.45,1028.2 511.37,1026.34 567.08,1024.96 " fill="none" id="UC15-backto-UC18" style="stroke:#181818;stroke-width:1.0;stroke-dasharray:7.0,7.0;"/><polygon fill="#181818" points="372.76,1029.78,381.8598,1033.5473,377.7583,1029.6515,381.6542,1025.55,372.76,1029.78" style="stroke:#181818;stroke-width:1.0;"/><text fill="#000000" font-family="sans-serif" font-size="13" lengthAdjust="spacing" textLength="64" x="421" y="1024.5684">«extends»</text></g><!--MD5=[b96f593c71fba68a3ee0d4ffe4694043]
link UC18 to UC19--><g id="link_UC18_UC19"><path d="M724.38,1027.8 C777.92,1031.16 851.45,1035.77 917.6,1039.93 " fill="none" id="UC18-to-UC19" style="stroke:#181818;stroke-width:1.0;stroke-dasharray:7.0,7.0;"/><polygon fill="#181818" points="922.47,1040.23,913.7257,1035.6982,917.479,1039.9305,913.2466,1043.6838,922.47,1040.23" style="stroke:#181818;stroke-width:1.0;"/><text fill="#000000" font-family="sans-serif" font-size="13" lengthAdjust="spacing" textLength="60" x="827" y="1031.5684">«include»</text></g><!--MD5=[7c411a2aac3bd4fcae87f15fcb6c296a]
link UC17 to UC19--><g id="link_UC17_UC19"><path d="M718.52,1087.62 C774.96,1081.71 856.11,1073.22 927.03,1065.8 " fill="none" id="UC17-to-UC19" style="stroke:#181818;stroke-width:1.0;stroke-dasharray:7.0,7.0;"/><polygon fill="#181818" points="931.91,1065.29,922.5462,1062.2373,926.9365,1065.8045,923.3694,1070.1949,931.91,1065.29" style="stroke:#181818;stroke-width:1.0;"/><text fill="#000000" font-family="sans-serif" font-size="13" lengthAdjust="spacing" textLength="60" x="827" y="1068.5684">«include»</text></g><!--MD5=[33e25583600199a6b66c8183a2d7b1c1]
link UC11 to Laboratory--><g id="link_UC11_Laboratory"><path d="M205.75,526.83 C169.25,528.69 130.37,539.17 115.5,572.5 C82.94,645.475 121.105,725.5325 169.1188,788.69 C193.1256,820.2688 219.5947,847.6225 240.9164,867.7534 C243.5816,870.2698 246.1664,872.6733 248.6559,874.9581 C249.2783,875.5293 249.8947,876.0931 250.5049,876.6494 " fill="none" id="UC11-to-Laboratory" style="stroke:#181818;stroke-width:1.0;stroke-dasharray:7.0,7.0;"/><polygon fill="#181818" points="250.5049,876.6494,246.5484,867.6302,246.8098,873.281,241.159,873.5424,250.5049,876.6494" style="stroke:#181818;stroke-width:1.0;"/></g><!--MD5=[ffaba8b9f42a2ef7461b95a4574b19e1]
link UC16 to EMR--><g id="link_UC16_EMR"><path d="M600.84,930.94 C572.98,917.75 538.41,897.39 516,870 C491.16,839.64 509.28,818.57 486,787 C453.055,742.315 403.485,704.5525 361.6363,677.7238 C340.7119,664.3094 321.7178,653.6284 307.6973,646.1823 C305.9448,645.2516 304.2699,644.3714 302.6787,643.5427 C301.8832,643.1283 301.1085,642.7269 300.3554,642.3384 C300.1672,642.2413 299.9803,642.145 299.7948,642.0495 " fill="none" id="UC16-to-EMR" style="stroke:#181818;stroke-width:1.0;stroke-dasharray:7.0,7.0;"/><polygon fill="#181818" points="299.7948,642.0495,305.9667,649.7246,304.2405,644.3375,309.6276,642.6114,299.7948,642.0495" style="stroke:#181818;stroke-width:1.0;"/><text fill="#000000" font-family="sans-serif" font-size="13" lengthAdjust="spacing" textLength="62" x="422" y="719.5684">Lab result</text></g><!--MD5=[2991bdf992fb7b18586074358bcef827]
link iol to cdr--><g id="link_iol_cdr"><path d="M726.11,693.28 C787.605,684.845 874.675,672.9 946.8175,663.0025 C964.8531,660.5281 981.9558,658.1817 997.4926,656.0501 C1005.261,654.9843 1012.638,653.9722 1019.5444,653.0247 " fill="none" id="iol-cdr" style="stroke:#181818;stroke-width:1.0;"/><polygon fill="#181818" points="1019.5444,653.0247,1010.0842,650.2851,1014.5908,653.7043,1011.1716,658.2109,1019.5444,653.0247" style="stroke:#181818;stroke-width:1.0;"/><polygon fill="#181818" points="721.47,693.92,730.9265,696.6722,726.4245,693.247,729.8497,688.745,721.47,693.92" style="stroke:#181818;stroke-width:1.0;"/><text fill="#000000" font-family="sans-serif" font-size="13" lengthAdjust="spacing" textLength="40" x="837" y="669.5684">HTTPS</text></g><!--MD5=[d23e741388bad012a3534bf82a1da7e5]
link EMR to iol--><g id="link_EMR_iol"><path d="M325.0031,642.0118 C325.3293,642.0748 325.657,642.1381 325.9863,642.2017 C327.3032,642.4561 328.6445,642.7151 330.0092,642.9787 C335.4681,644.033 341.3015,645.1596 347.4507,646.3472 C359.7491,648.7224 373.3106,651.3416 387.665,654.1138 C445.0825,665.2025 515.185,678.74 567.87,688.91 " fill="none" id="EMR-iol" style="stroke:#181818;stroke-width:1.0;stroke-dasharray:7.0,7.0;"/><polygon fill="#181818" points="572.59,689.83,564.5207,684.1832,567.6822,688.8741,562.9913,692.0356,572.59,689.83" style="stroke:#181818;stroke-width:1.0;"/><polygon fill="#181818" points="325.0031,642.0118,333.0813,647.6459,329.9124,642.96,334.5983,639.7911,325.0031,642.0118" style="stroke:#181818;stroke-width:1.0;"/><text fill="#000000" font-family="sans-serif" font-size="13" lengthAdjust="spacing" textLength="57" x="424.5" y="657.5684">EMR data</text></g><!--MD5=[0b7c36cf0c6fb9a65fa811ca56230e90]
link Laboratory to iol--><g id="link_Laboratory_iol"><path d="M367.6808,876.7928 C368.0097,876.6613 368.3391,876.5293 368.6689,876.3968 C369.3284,876.1318 369.9897,875.8649 370.6526,875.5959 C371.9783,875.0581 373.3105,874.5122 374.6484,873.9583 C380.0002,871.7429 385.4442,869.3994 390.9379,866.9261 C401.9252,861.9795 413.1114,856.5138 424.1559,850.5144 C446.245,838.5156 467.7675,824.3825 486,808 C504.99,790.93 496.65,775.66 516,759 C531.23,745.89 550.05,735.53 568.59,727.51 " fill="none" id="Laboratory-iol" style="stroke:#181818;stroke-width:1.0;stroke-dasharray:7.0,7.0;"/><polygon fill="#181818" points="572.93,725.68,563.0828,725.4969,568.324,727.6254,566.1955,732.8665,572.93,725.68" style="stroke:#181818;stroke-width:1.0;"/><polygon fill="#181818" points="367.6808,876.7928,377.5226,877.1663,372.3236,874.9368,374.5531,869.7379,367.6808,876.7928" style="stroke:#181818;stroke-width:1.0;"/><text fill="#000000" font-family="sans-serif" font-size="13" lengthAdjust="spacing" textLength="53" x="426.5" y="804.5684">Lab data</text></g><!--MD5=[fdb44ddcdecbad69fafeab140b46ad63]
link macthingAdmin to UC21--><g id="link_macthingAdmin_UC21"><path d="M728.38,809.21 C789.37,804.81 874.56,798.67 945.57,793.55 " fill="none" id="macthingAdmin-to-UC21" style="stroke:#181818;stroke-width:1.0;"/><polygon fill="#181818" points="950.45,793.2,941.1872,789.8533,945.4628,793.5573,941.7588,797.8328,950.45,793.2" style="stroke:#181818;stroke-width:1.0;"/></g><!--MD5=[bfa5fa7131f7f5cf103e7646e557b347]
link iol to cr--><g id="link_iol_cr"><path d="M726.48,706.92 C757.245,708.065 794.3719,709.4469 832.8127,710.8777 C852.033,711.593 871.5819,712.3207 890.8283,713.037 C900.4514,713.3952 909.999,713.7505 919.392,714.1001 C919.9791,714.122 920.5655,714.1438 921.1514,714.1656 " fill="none" id="iol-cr" style="stroke:#181818;stroke-width:1.0;"/><polygon fill="#181818" points="921.1514,714.1656,912.3064,709.8337,916.1548,713.9797,912.0088,717.8281,921.1514,714.1656" style="stroke:#181818;stroke-width:1.0;"/><polygon fill="#181818" points="721.48,706.73,730.3253,711.0613,726.4766,706.9156,730.6223,703.0668,721.48,706.73" style="stroke:#181818;stroke-width:1.0;"/><text fill="#000000" font-family="sans-serif" font-size="13" lengthAdjust="spacing" textLength="40" x="837" y="708.5684">HTTPS</text></g><!--MD5=[21e25c03627f8a873b1fd8e53710f956]
link caseReporter to UC22--><g id="link_caseReporter_UC22"><path d="M1127.98,1192.08 C1171.76,1183.65 1236.13,1165.71 1280,1129 C1391.76,1035.5 1453.43,862.82 1473.3,798.76 " fill="none" id="caseReporter-to-UC22" style="stroke:#181818;stroke-width:1.0;"/><polygon fill="#181818" points="1474.65,794.35,1468.1817,801.777,1473.1806,799.1292,1475.8284,804.1281,1474.65,794.35" style="stroke:#181818;stroke-width:1.0;"/></g><!--MD5=[a5d55c278f90994c9923b0999686fcf3]
link cdr to dm--><g id="link_cdr_dm"><path d="M1125.1393,653.0876 C1126.3989,653.3143 1127.6797,653.5448 1128.9813,653.7792 C1131.5843,654.248 1134.2699,654.7319 1137.0327,655.2301 C1148.084,657.2228 1160.3709,659.4438 1173.5538,661.835 C1226.285,671.4 1293.35,683.69 1353,695 C1359.9813,696.3238 1367.1748,697.7003 1374.4228,699.0966 C1374.8758,699.1839 1375.329,699.2713 1375.7824,699.3587 C1376.0091,699.4024 1376.2359,699.4461 1376.4626,699.4899 " fill="none" id="cdr-to-dm" style="stroke:#181818;stroke-width:1.0;"/><polygon fill="#181818" points="1376.4626,699.4899,1368.3831,693.8577,1371.5531,698.5429,1366.8679,701.7129,1376.4626,699.4899" style="stroke:#181818;stroke-width:1.0;"/><text fill="#000000" font-family="sans-serif" font-size="13" lengthAdjust="spacing" textLength="63" x="1289" y="680.5684">Push Data</text></g><!--MD5=[9f74507ba4c5de429b9ead8eee9af94d]
link cr to dm--><g id="link_cr_dm"><path d="M1236.688,720 C1237.4416,720 1238.1961,720 1238.9514,720 C1240.462,720 1241.9759,720 1243.4927,720 C1255.6271,720 1267.948,720 1280.2688,720 C1304.9103,720 1329.5515,720 1352.6998,720 C1358.4869,720 1364.1806,720 1369.7578,720 C1371.1521,720 1372.5391,720 1373.9184,720 C1374.6081,720 1375.2958,720 1375.9816,720 " fill="none" id="cr-to-dm" style="stroke:#181818;stroke-width:1.0;"/><polygon fill="#181818" points="1375.9816,720,1366.9816,716,1370.9816,720,1366.9816,724,1375.9816,720" style="stroke:#181818;stroke-width:1.0;"/><text fill="#000000" font-family="sans-serif" font-size="13" lengthAdjust="spacing" textLength="63" x="1289" y="716.5684">Push Data</text></g><!--MD5=[51a376ce8bb3f4174f9e3dbc26663388]
@startuml UseCaseDiagram
left to right direction
actor "Nurse" as nurse
rectangle EMR {
  usecase "Register Client" as UC1
  usecase "Assess Client" as UC2
  usecase "Document Screening Information" as UC3
  usecase "Document Symptoms" as UC4
  usecase "Document Comorbidities" as UC5
  usecase "Document Hospital Encounters" as UC6
  usecase "Document Diagnosis" as UC8
  usecase "Document Treatment Information" as UC9
  usecase "Document Client Outcome" as UC10
  usecase "Submit Lab Order" as UC11
  usecase "Document Vaccination Events" as UC12
  
}

nurse - -> UC1
nurse - -> UC2
nurse - -> UC10
nurse - -> UC11
nurse - -> UC12

(UC2) <.. (UC3) : "<<extends>>"
(UC2) <.. (UC4) : "<<extends>>"
(UC2) <.. (UC5) : "<<extends>>"
(UC2) <.. (UC6) : "<<extends>>"
(UC2) <.. (UC12) : "<<extends>>"
(UC2) <.. (UC8) : "<<extends>>"
(UC2) <.. (UC9) : "<<extends>>"

actor "Lab Assistant" as labAssistant
rectangle Laboratory {
  usecase "Sample Collection" as UC14
  usecase "Process Lab Request" as UC15
  usecase "Document Lab Result" as UC16
  usecase "Reject Lab Order" as UC17
  usecase "Cancel Lab Order" as UC18
  usecase "Document Reason For Not Performing Test" as UC19
}

labAssistant - -> UC14
labAssistant - -> UC15


(UC15) <.. (UC16) : "<<extends>>"
(UC15) <.. (UC17) : "<<extends>>"
(UC15) <.. (UC18) : "<<extends>>"

(UC18) ..> (UC19) : "<<include>>"
(UC17) ..> (UC19) : "<<include>>"

(UC11) ..> Laboratory

(UC16) ..> EMR : "Lab result"

actor "Interoperability Layer" as iol
rectangle "Centralised Data Repository" as cdr {
  usecase "Manage Clinical Data" as UC20
}

iol <- -> cdr : "HTTPS"

EMR <..> iol : "EMR data"
Laboratory <..> iol : "Lab data"


actor "Matching Administrator" as macthingAdmin
rectangle "Client Registry" as cr {
  usecase "Manage Master Patient Index (MPI)" as UC21
}

macthingAdmin - -> UC21

iol <- -> cr : "HTTPS"

actor "Case Reporter" as caseReporter
rectangle "Data Mart" as dm {
  usecase "Generate Reports" as UC22
}

caseReporter - -> UC22

cdr - -> dm : "Push Data"
cr - -> dm : "Push Data"

@enduml

PlantUML version 1.2022.7(Mon Aug 22 19:01:30 SAST 2022)
(GPL source distribution)
Java Runtime: Java(TM) SE Runtime Environment
JVM: Java HotSpot(TM) 64-Bit Server VM
Default Encoding: UTF-8
Language: en
Country: GB
--></g></svg>